<svg width="424" height="439" viewBox="0 0 424 439" fill="none" xmlns="http://www.w3.org/2000/svg">
<path opacity="0.4" fill-rule="evenodd" clip-rule="evenodd" d="M192.652 0.590362C235.472 -4.42653 274.031 23.5631 311.224 45.4434C349.853 68.1689 393.102 89.3457 412.43 129.884C431.863 170.644 422.65 218.183 414.796 262.677C407.157 305.949 398.228 351.346 367.763 382.911C337.923 413.827 293.567 423.367 251.52 431.843C212.426 439.724 171.813 443.626 134.332 429.966C98.0525 416.743 70.8058 387.785 46.9919 357.298C24.0994 327.99 3.24072 295.501 0.302256 258.378C-2.55394 222.293 15.3767 189.149 31.1038 156.574C46.4961 124.693 65.1912 95.85 90.6288 71.2886C121.026 41.9382 150.756 5.49893 192.652 0.590362Z" fill="#C4C4C4"/>
<path d="M106.163 257.866C103.842 261.374 101.166 264.633 98.7867 268.102C94.2317 274.745 90.7907 282.15 88.6497 289.916C86.2417 298.653 85.5007 308.018 87.8407 316.773C90.1807 325.528 95.8497 333.602 103.945 337.677C108.134 339.786 112.793 340.775 117.433 341.45C123.374 342.313 129.386 342.694 135.388 342.586C141.721 342.472 149.119 341.124 151.961 335.464C153.297 332.804 153.309 329.699 153.293 326.723C153.254 319.571 153.215 312.42 153.175 305.268C153.153 301.314 153.124 297.304 152.055 293.497C150.966 289.621 148.85 286.131 147.021 282.544C139.941 268.654 136.911 252.676 127.762 240.053C126.687 238.569 125.472 237.093 123.812 236.318C116.804 233.043 109.149 253.352 106.163 257.866Z" fill="#C9763A"/>
<path d="M113.294 310.159C111.673 307.019 108.975 304.299 105.579 303.323C102.814 302.529 99.5087 302.795 97.4867 300.75C96.2717 299.521 95.8417 297.717 95.7217 295.993C95.3537 290.698 97.4097 285.547 99.7457 280.781C102.082 276.014 104.769 271.318 105.819 266.115C106.325 263.604 106.383 260.893 105.833 258.342C103.589 261.668 101.057 264.792 98.7867 268.101C94.2317 274.744 90.7907 282.149 88.6497 289.915C86.2417 298.652 85.5007 308.017 87.8407 316.772C90.1807 325.527 95.8497 333.601 103.945 337.676C105.147 338.281 106.392 338.786 107.661 339.226C108.426 338.749 109.172 338.242 109.875 337.678C112.329 335.705 114.407 333.171 115.428 330.193C116.502 327.059 116.352 323.645 115.977 320.353C115.575 316.842 114.914 313.299 113.294 310.159Z" fill="#F3BC81"/>
<path d="M132.63 262.389C129.392 260.114 126.36 257.835 123.146 255.952C119.947 254.072 116.709 252.455 113.405 251.308C106.82 248.954 99.9918 248.64 93.8668 250.671C87.7188 252.635 82.3718 256.974 78.6698 262.72C74.9038 268.476 72.9648 275.618 72.6298 283.47C70.9538 279.895 70.1068 275.878 70.0428 271.768C69.9968 267.656 70.8308 263.458 72.4848 259.531C74.1318 255.6 76.6478 251.968 79.8228 248.958C82.9908 245.931 86.9058 243.652 91.1128 242.264C95.3298 240.899 99.8398 240.467 104.173 240.998C108.509 241.519 112.639 242.951 116.286 245C119.942 247.052 123.145 249.674 125.892 252.608L127.851 254.888C128.482 255.66 129.047 256.486 129.612 257.301C130.789 258.888 131.708 260.666 132.63 262.389Z" fill="#F3BC81"/>
<path d="M231.011 187.8C223.584 182.664 212.076 181.716 203.283 181.482C193.462 181.222 183.584 182.946 174.459 186.594C170.261 188.272 166.23 190.34 162.265 192.512C150.472 198.971 139.089 206.468 129.833 216.222C122.938 223.487 117.619 232.064 112.901 240.817C108.068 249.783 107.94 263.886 108.563 273.839C109.265 285.065 112.45 296.254 118.643 305.644C121.943 310.648 126.041 315.077 130.325 319.269C132.726 321.619 135.209 323.916 138.032 325.738C141.056 327.69 144.42 329.062 147.851 330.151C158.205 333.437 169.19 334.193 180.053 334.283C183.948 334.315 187.863 334.263 191.705 333.616C195.669 332.948 199.504 331.653 203.218 330.116C216.243 324.726 225.59 317.243 233.387 305.507C253 275.985 256.58 236.467 242.59 203.902C239.945 197.745 236.523 191.611 231.011 187.8Z" fill="#C9763A"/>
<path d="M224.525 286.524C224.525 286.524 225.94 299.135 236.492 302.421C247.044 305.708 256.629 303.25 258.226 302.482C262.307 300.518 266.071 292.941 265.38 286.524C264.688 280.107 231.587 272.702 224.525 286.524Z" fill="#F3BC81"/>
<path d="M326.138 292.406C332.456 303.874 336.821 317.025 337.868 330.107C338.971 343.892 334.925 355.155 324.669 364.507C316.721 371.754 307.48 368.838 298.628 365.104C289.16 361.111 280.462 355.547 271.835 350.022C267.577 347.295 263.319 344.568 259.061 341.84C258.561 341.52 258.016 341.136 257.908 340.552C257.784 339.881 258.29 339.273 258.759 338.777C265.329 331.831 271.84 324.794 277.624 317.169C280.438 313.459 283.081 309.616 285.444 305.603C286.525 303.768 288.171 301.584 288.65 299.493C288.899 298.407 288.378 297.127 288.774 296.03C289.017 295.358 308.303 241.908 308.303 241.908C308.303 241.908 313.623 269.69 326.138 292.406Z" fill="#C9763A"/>
<path d="M156.502 234.12C147.372 253.675 145.614 277.36 155.198 296.697C160.925 308.253 170.459 317.802 181.777 323.985C191.583 329.342 202.523 332.185 213.038 335.965C223.553 339.745 234.064 344.754 241.28 353.286C241.861 353.973 242.485 354.723 243.362 354.923C243.965 355.06 244.593 354.911 245.191 354.756C269.633 348.424 291.351 330.983 301.166 307.719C303.204 302.889 304.723 297.846 305.761 292.709C306.545 288.828 305.834 285.245 306.416 281.438C308.071 270.625 310.822 260.293 310.818 249.246C310.815 241.262 309.667 233.278 307.421 225.616C304.373 215.221 298.371 201.77 288.36 196.406C277.126 190.388 265.827 185.605 253.272 182.949C244.887 181.175 236.346 180.115 227.778 179.916C221.266 179.764 214.618 180.159 208.352 182.061C202.444 183.855 197.822 187.4 192.858 190.879C182.949 197.824 174.036 207.209 166.849 216.895C162.85 222.282 159.342 228.039 156.502 234.12Z" fill="#C9763A"/>
<path d="M181.623 275.542C183.201 276.273 184.509 277.572 185.439 279.075C186.356 280.597 186.929 282.303 187.266 284.041C187.933 287.562 187.454 291.085 187.283 294.489C187.021 297.901 187.265 301.27 188.293 304.512C189.304 307.743 191.011 310.764 193.252 313.4C191.938 312.27 190.8 310.933 189.788 309.504C188.822 308.045 188.003 306.478 187.374 304.83C186.74 303.184 186.327 301.449 186.111 299.69C185.903 297.925 185.93 296.154 186.023 294.417C186.234 290.947 186.721 287.533 186.311 284.194C186.105 282.526 185.662 280.877 184.902 279.374C184.187 277.844 183.053 276.521 181.623 275.542Z" fill="#A6571E"/>
<path d="M191.628 294.455C191.555 299.33 192.433 304.086 194.275 308.477C196.097 312.877 198.855 316.848 202.365 320.232C198.21 317.629 195.017 313.525 193.108 308.963C191.217 304.394 190.553 299.237 191.628 294.455Z" fill="#A6571E"/>
<path d="M199.033 302.943C199.659 307.264 201.082 311.331 203.306 314.952C205.511 318.584 208.477 321.708 212.033 324.242C207.966 322.582 204.544 319.391 202.227 315.61C199.926 311.82 198.654 307.319 199.033 302.943Z" fill="#A6571E"/>
<path d="M208.777 313.576C210.328 316.987 212.557 319.887 215.243 322.33C217.917 324.797 221.026 326.755 224.191 328.76C220.61 327.665 217.217 325.824 214.39 323.262C212.993 321.968 211.741 320.502 210.765 318.862C209.776 317.237 209.076 315.43 208.777 313.576Z" fill="#A6571E"/>
<path d="M297.904 286.868C299.684 290.84 300.206 295.367 299.717 299.726C299.203 304.083 297.664 308.372 295.023 311.833C296.786 307.875 297.988 303.788 298.462 299.581C298.962 295.376 298.723 291.123 297.904 286.868Z" fill="#A6571E"/>
<path d="M295.978 299.614C296.017 303.085 295.204 306.541 293.891 309.761C292.547 312.968 290.68 315.989 288.197 318.415C289.876 315.389 291.445 312.408 292.723 309.278C294.034 306.161 295.03 302.942 295.978 299.614Z" fill="#A6571E"/>
<path d="M287.928 310.802C287.861 313.266 286.739 315.657 285.117 317.537C283.478 319.402 281.261 320.841 278.828 321.24C280.871 319.905 282.655 318.455 284.164 316.706C285.693 314.974 286.887 313.008 287.928 310.802Z" fill="#A6571E"/>
<path d="M159.88 275.287C159.392 275.08 159.88 293.19 146.322 307.343C132.764 321.496 130.679 344.44 132.138 349.029C133.598 353.618 166.052 362.17 179.756 357.372C193.46 352.575 196.375 333.255 193.249 329.148C190.123 325.042 180.32 313.57 177.191 300.638C174.064 287.706 170.929 279.979 159.88 275.287Z" fill="#C9763A"/>
<path d="M169.005 294.997C169.504 290.29 167.309 285.541 163.861 282.298C162.462 280.982 160.942 280.009 159.333 279.191C158.491 285.257 155.948 297.294 146.322 307.343C132.764 321.496 130.679 344.44 132.138 349.029C132.819 351.168 140.236 354.167 149.347 356.275C153.971 355.138 158.654 353.557 161.897 350.114C166.614 345.106 167.093 337.477 166.398 330.633C166.072 327.426 165.536 324.2 164.243 321.247C163.67 319.938 162.95 318.686 162.546 317.315C161.429 313.525 162.878 309.473 164.652 305.943C166.425 302.412 168.588 298.926 169.005 294.997Z" fill="#F3BC81"/>
<path d="M154.04 326.085C154.04 326.085 195.756 331.925 215.362 330.048C234.969 328.171 254.594 341.059 261.499 342.98C268.404 344.901 279.722 352.992 278.829 370.93C278.829 370.93 273.764 374.684 267.09 373.433C267.09 373.433 254.992 377.49 248.526 373.688C248.526 373.688 237.354 377.813 229.799 376.77C222.245 375.727 216.404 367.801 213.484 367.592C210.564 367.384 195.594 374.475 187.435 375.101C179.277 375.727 133.18 380.107 132.137 349.029C132.139 349.029 132.765 327.545 154.04 326.085Z" fill="#C9763A"/>
<path d="M185.266 208.536C185.228 211.255 184.177 213.844 183.223 216.339C182.219 218.828 181.364 221.356 180.73 223.947C179.457 229.113 178.882 234.47 179.389 239.752C179.604 242.392 180.06 245.013 180.791 247.559C181.515 250.11 182.563 252.557 183.764 254.922C184.983 257.28 186.459 259.514 188.189 261.542C189.883 263.604 191.847 265.442 193.983 267.081C189.393 264.247 185.589 260.128 182.911 255.388C180.19 250.658 178.635 245.289 178.131 239.859C177.715 234.417 178.293 228.914 179.795 223.696C180.554 221.09 181.53 218.547 182.656 216.098C183.802 213.673 184.939 211.225 185.266 208.536Z" fill="#A6571E"/>
<path d="M186.191 233.7C186.026 238.648 186.454 243.569 188.165 248.091C189.853 252.595 192.79 256.636 196.86 259.485C194.576 258.501 192.513 256.941 190.854 255.034C189.177 253.136 187.883 250.906 186.982 248.535C185.214 243.771 185.033 238.521 186.191 233.7Z" fill="#A6571E"/>
<path d="M197.033 248.089C197.582 250.421 198.337 252.543 199.466 254.503C200.575 256.474 202.012 258.207 203.735 259.873C201.456 259.055 199.582 257.244 198.368 255.128C197.173 253.001 196.574 250.466 197.033 248.089Z" fill="#A6571E"/>
<path d="M304.495 236.971C305.357 240.022 306.263 243.044 306.964 246.153C307.677 249.25 308.081 252.482 307.894 255.705C307.715 258.921 307.068 262.114 305.904 265.107C304.775 268.11 303.158 270.919 301.125 273.356C301.92 271.982 302.681 270.604 303.306 269.163C303.972 267.745 304.536 266.282 304.984 264.789C305.9 261.811 306.486 258.739 306.632 255.64C306.843 252.54 306.491 249.441 306.013 246.336C305.52 243.232 304.846 240.126 304.495 236.971Z" fill="#F3BC81"/>
<path d="M302.44 251.82C303.648 256.507 303.238 261.6 301.647 266.215C300.036 270.824 297.2 275.075 293.344 278.001C296.491 274.354 298.918 270.251 300.454 265.8C302.011 261.357 302.65 256.632 302.44 251.82Z" fill="#F3BC81"/>
<path d="M296.222 261.57C296.393 265.202 295.488 268.868 293.918 272.171C292.322 275.461 290.025 278.46 287.08 280.594C289.316 277.746 291.264 274.808 292.779 271.624C294.322 268.453 295.399 265.095 296.222 261.57Z" fill="#F3BC81"/>
<path d="M148.12 209.246C148.42 209.173 148.739 209.109 149.034 209.2C149.791 209.435 149.901 210.465 149.747 211.243C149.183 214.093 147.121 216.407 146.106 219.13C145.083 221.875 145.165 224.922 144.246 227.703C142.587 232.724 138.016 236.09 134.533 240.069C131.374 243.678 129.011 247.981 127.662 252.584C126.716 255.809 126.266 259.156 125.514 262.431C125.196 263.815 124.786 265.256 123.783 266.262C121.876 268.177 118.426 267.679 116.495 265.789C114.564 263.899 113.879 261.067 113.731 258.369C113.275 250.067 117.028 242.155 121.05 234.878C122.65 231.982 124.319 229.102 126.441 226.564C129.589 222.798 133.963 220.534 137.24 217.001C140.493 213.495 143.245 210.432 148.12 209.246Z" fill="#F3BC81"/>
<path d="M122.526 271.452C122.991 271.404 123.478 271.421 123.901 271.619C124.387 271.846 124.736 272.283 125.057 272.713C126.293 274.367 127.379 276.133 128.297 277.983C129.577 280.562 130.808 283.581 133.505 284.59C135.663 285.398 138.071 284.617 140.369 284.79C143.564 285.031 146.454 287.231 147.837 290.121C149.22 293.011 149.172 296.476 148.026 299.468C146.88 302.46 144.705 304.992 142.117 306.88C141.057 307.653 139.897 308.338 138.612 308.599C136.926 308.941 135.177 308.527 133.559 307.942C125.654 305.085 119.577 298.035 117.191 289.975C116.041 286.09 115.87 282.133 117.135 278.263C118.076 275.376 118.882 271.83 122.526 271.452Z" fill="#F3BC81"/>
<path d="M326.137 292.406C322.071 285.026 318.769 277.116 316.158 269.793C312.913 275.7 312.029 282.909 314.287 289.321C315.833 293.712 318.716 297.878 318.42 302.524C318.139 306.932 315.048 310.613 313.649 314.802C313.127 316.365 312.845 318.074 313.304 319.656C313.641 320.818 314.352 321.83 315.051 322.817C316.316 324.604 317.692 326.481 319.724 327.295C320.939 327.782 322.277 327.838 323.585 327.898C328.398 328.116 333.289 328.478 337.853 329.952C336.743 316.605 331.633 302.382 326.137 292.406Z" fill="#F3BC81"/>
<path d="M193.401 148.871C196.77 152.769 199.7 157.046 202.117 161.596C210.16 152.189 218.202 142.783 226.245 133.376C227.536 131.866 231.366 129.011 229.279 127.518C227.439 126.202 222.241 126.309 219.913 125.679C213.705 124 207.74 121.555 201.725 119.307C197.547 117.746 193.071 116.256 188.706 117.172C185.687 117.806 183.034 119.534 180.347 121.048C175.752 123.636 170.857 125.679 166.369 128.449C161.882 131.219 157.719 134.86 155.546 139.665C152.454 146.502 153.851 154.495 156.066 161.664C158.28 168.833 161.286 175.956 161.274 183.459C161.262 191.273 157.988 199.341 160.671 206.68C162.107 210.61 165.095 213.688 168.419 216.116C170.821 217.87 176.099 221.56 178.312 217.457C178.681 216.772 178.821 215.99 178.924 215.219C179.408 211.592 178.887 207.593 179.884 204.089C180.861 200.653 183.071 197.731 185.11 194.861C187.05 192.13 188.985 189.172 189.612 185.824C189.908 184.245 190.111 182.768 190.45 181.196C190.811 179.523 191.015 177.821 191.125 176.115C191.57 169.238 190.439 162.296 191.489 155.451C191.836 153.186 192.438 150.956 193.401 148.871Z" fill="#C9763A"/>
<path d="M315.985 131.852C321.958 133.567 325.705 139.723 331.16 142.405C334.364 143.98 338.024 144.38 341.314 145.764C348.124 148.629 351.811 154.767 351.741 161.841C351.697 166.261 352.887 170.714 352.972 175.176C353.063 179.893 352.681 184.62 351.827 189.26C350.278 197.676 344.771 209.069 348.394 217.29C349.402 219.578 350.684 221.777 351.24 224.215C351.383 224.843 351.474 225.516 351.252 226.121C350.812 227.32 349.353 227.782 348.076 227.827C345.807 227.907 343.583 227.186 341.501 226.281C336.59 224.146 332.861 221.219 329.509 217.183C325.961 212.911 322.054 209.684 319.638 204.495C314.214 192.845 316.095 179.311 315.365 166.481C313.116 168.079 310.537 169.211 307.838 169.784C305.363 164.224 302.887 158.664 300.412 153.104C298.785 149.45 297.154 145.775 295.092 142.34C292.811 138.541 290.622 136.833 296.001 136.15C302.392 135.338 309.355 129.97 315.949 131.841C315.962 131.846 315.974 131.849 315.985 131.852Z" fill="#C9763A"/>
<path d="M302.836 226.632C303.321 225.672 303.73 224.683 304.034 223.662C305.061 220.212 305.009 216.119 305.564 212.506C307.011 203.084 308.602 193.685 309.947 184.248C312.434 166.801 303.641 140.451 298.287 137.061C294.644 134.754 291.948 131.582 287.879 129.82C283.861 128.079 279.387 127.36 275.031 127.879C272.366 128.196 269.755 128.944 267.075 129.094C262.651 129.342 258.307 127.95 254.173 126.355C250.039 124.759 245.942 122.928 241.567 122.226C236.131 121.354 230.051 122.99 224.875 124.74C220.934 126.073 218.416 127.268 215.567 130.329C208.425 138 202.956 147.909 199.402 157.716C198.182 161.083 197.191 164.555 196.685 168.105C194.198 185.552 192.121 206.267 190.57 211.007C189.019 215.747 202.629 228.776 204.347 235.15C206.065 241.523 203.702 262.198 204.52 266.692C205.339 271.186 212.737 280.704 219.316 283.684C225.895 286.664 236.802 281.799 238.396 280.858C239.663 282.206 248.777 289.925 255.927 288.901C263.077 287.877 272.839 280.806 274.881 276.719C276.923 272.632 280.43 252.121 283.86 246.482C286.944 241.412 293.25 239.413 296.91 234.971C299.014 232.418 301.303 229.669 302.836 226.632Z" fill="#C9763A"/>
<path d="M274.882 276.719C276.662 273.156 279.556 257.11 282.542 249.318C279.517 242.786 273.681 238.501 264.417 234.705C251.62 229.462 253.751 215.048 246.202 214.498C238.653 213.948 239.099 225.968 221.885 229.564C213.421 231.332 208.038 236.749 204.967 241.093C205.115 247.09 204.677 253.091 204.449 259.081C204.363 261.333 204.373 263.565 204.411 265.815C204.435 267.193 204.311 268.24 204.79 269.576C205.365 271.179 206.103 272.735 206.974 274.197C207.741 275.483 208.624 276.701 209.628 277.813C211.775 280.193 214.508 282.092 217.566 283.09C220.239 283.963 222.578 284.768 225.463 284.606C229.776 284.364 234.437 283.023 238.242 280.946C238.294 280.918 238.346 280.889 238.396 280.859C239.663 282.207 248.777 289.926 255.927 288.902C263.078 287.877 272.84 280.806 274.882 276.719Z" fill="#F3BC81"/>
<path d="M200.154 217.788C201.276 219.092 202.11 220.631 202.777 222.215C203.453 223.802 203.93 225.464 204.309 227.142C204.654 228.828 204.884 230.535 204.956 232.249C205.013 233.104 204.977 233.964 204.971 234.818C204.903 235.675 204.854 236.527 204.737 237.376L203.975 232.348C203.706 230.688 203.43 229.038 203.074 227.406C202.73 225.771 202.322 224.153 201.853 222.548C201.356 220.951 200.857 219.346 200.154 217.788Z" fill="#F3BC81"/>
<path d="M292.344 230.928C291.233 232.227 290.306 233.63 289.384 235.023C288.485 236.434 287.641 237.873 286.854 239.346C286.056 240.814 285.33 242.321 284.608 243.839L282.471 248.454C282.595 247.606 282.787 246.774 282.961 245.933C283.194 245.112 283.4 244.276 283.693 243.471C284.242 241.845 284.939 240.27 285.741 238.748C286.573 237.243 287.495 235.78 288.588 234.445C289.672 233.111 290.902 231.866 292.344 230.928Z" fill="#F3BC81"/>
<path d="M242.145 155.371C243.538 156.556 244.63 158.122 245.369 159.826C246.128 161.528 246.558 163.361 246.768 165.201C247.144 168.9 246.655 172.558 245.795 176.088C245.663 172.439 245.906 168.847 245.511 165.335C245.14 161.834 244.174 158.405 242.145 155.371Z" fill="#A6571E"/>
<path d="M247.603 177.133C247.333 173.59 247.662 170.04 248.291 166.559C248.957 163.084 249.931 159.654 251.463 156.448C250.887 159.949 250.157 163.353 249.533 166.79C248.873 170.221 248.326 173.659 247.603 177.133Z" fill="#A6571E"/>
<path d="M249.812 176.087C249.475 173.857 249.682 171.614 250.127 169.438C250.61 167.269 251.34 165.138 252.564 163.243C252.285 165.476 251.8 167.576 251.362 169.702C250.887 171.82 250.469 173.936 249.812 176.087Z" fill="#A6571E"/>
<path d="M252.291 176.324C252.315 172.975 253.086 169.661 254.27 166.531C255.488 163.413 257.137 160.438 259.368 157.938C257.982 160.977 256.609 163.928 255.45 166.984C254.258 170.028 253.298 173.139 252.291 176.324Z" fill="#A6571E"/>
<path d="M237.584 184.758C238.679 186.518 239.02 188.701 238.986 190.767C238.954 192.854 238.684 194.876 238.351 196.914C237.98 198.94 237.475 200.967 236.658 202.883C235.871 204.806 234.734 206.603 233.289 208.063C235.403 204.536 236.411 200.656 237.107 196.693C237.456 194.714 237.778 192.696 238.005 190.715C238.19 188.732 238.222 186.719 237.584 184.758Z" fill="#A6571E"/>
<path d="M234.985 196.52C235.414 199.121 234.903 201.84 233.841 204.266C232.752 206.68 231.072 208.88 228.85 210.299C230.363 208.161 231.68 206.047 232.687 203.752C233.72 201.47 234.411 199.075 234.985 196.52Z" fill="#A6571E"/>
<path d="M230.204 202.735C230.297 204.097 229.597 205.414 228.871 206.501C228.139 207.61 227.292 208.645 226.345 209.594C225.384 210.527 224.329 211.381 223.146 212.034C221.979 212.703 220.685 213.17 219.363 213.328C221.685 212.043 223.653 210.499 225.457 208.694C226.372 207.811 227.224 206.855 228.092 205.901C228.939 204.938 229.767 203.997 230.204 202.735Z" fill="#A6571E"/>
<path d="M225.132 206.873C224.247 208.839 222.426 210.321 220.408 211.127C218.384 211.915 216.04 212.072 214.053 211.234C216.175 211.065 218.104 210.686 219.946 209.952C221.794 209.236 223.466 208.197 225.132 206.873Z" fill="#A6571E"/>
<path d="M262.896 188.365C261.736 190.07 261.204 192.012 260.828 193.966C260.492 195.932 260.237 197.959 260.02 199.957C259.581 203.957 259.465 207.964 260.509 211.941C259.529 210.135 258.939 208.093 258.721 206.026C258.472 203.957 258.553 201.87 258.763 199.821C259.013 197.772 259.318 195.755 259.87 193.742C260.416 191.75 261.352 189.749 262.896 188.365Z" fill="#A6571E"/>
<path d="M262.106 200.387C261.943 203 261.937 205.492 262.293 207.973C262.619 210.458 263.293 212.856 264.148 215.331C262.411 213.347 261.413 210.766 261.041 208.144C260.698 205.518 260.967 202.765 262.106 200.387Z" fill="#A6571E"/>
<path d="M264.959 207.689C265.026 209.023 265.558 210.158 266.102 211.32C266.668 212.479 267.219 213.635 267.851 214.738C269.08 216.975 270.538 219.008 272.408 220.89C271.183 220.368 270.071 219.558 269.137 218.59C268.184 217.633 267.409 216.517 266.747 215.353C266.103 214.177 265.579 212.946 265.186 211.677C264.793 210.431 264.489 208.971 264.959 207.689Z" fill="#A6571E"/>
<path d="M268.674 213.079C269.903 214.816 271.218 216.28 272.794 217.483C274.357 218.703 276.103 219.606 278.094 220.361C275.951 220.611 273.745 219.805 272.021 218.483C270.309 217.145 268.974 215.214 268.674 213.079Z" fill="#A6571E"/>
<path d="M254.883 261.394C252.364 258.761 240.494 260.023 232.741 257.833C229.866 257.021 226.738 258.185 225.401 260.857C224.477 262.704 224.274 264.876 226.347 266.854C231.249 271.532 234.315 280.143 238.397 280.858C242.48 281.574 249.261 272.508 252.027 271.452C255.424 270.153 257.821 264.465 254.883 261.394Z" fill="#A6571E"/>
<path d="M237.688 192.534C236.491 200.934 228.105 206.686 218.959 205.383C209.812 204.079 203.368 196.213 204.565 187.813C205.762 179.413 212.491 172.224 221.638 173.528C230.785 174.831 238.885 184.134 237.688 192.534Z" fill="white"/>
<path d="M236.625 193.643C235.622 200.68 229.104 205.571 222.068 204.568C215.031 203.565 210.14 197.047 211.142 190.01C212.145 182.973 218.663 178.082 225.7 179.085C232.737 180.088 237.628 186.606 236.625 193.643Z" fill="#1F2F57"/>
<path d="M235.986 187.406C235.634 189.876 233.346 191.593 230.877 191.24C228.407 190.888 226.691 188.6 227.042 186.131C227.394 183.661 229.681 181.945 232.151 182.297C234.621 182.648 236.338 184.936 235.986 187.406Z" fill="white"/>
<path d="M217.09 199.338C216.882 200.798 215.53 201.812 214.07 201.604C212.61 201.396 211.596 200.044 211.804 198.584C212.012 197.125 213.364 196.11 214.824 196.318C216.283 196.527 217.298 197.879 217.09 199.338Z" fill="white"/>
<path d="M261.366 195.908C260.169 204.308 266.613 212.174 275.76 213.478C284.907 214.782 293.292 209.029 294.489 200.629C295.686 192.229 291.233 183.446 282.087 182.142C272.94 180.839 262.563 187.509 261.366 195.908Z" fill="white"/>
<path d="M262.078 197.27C261.075 204.307 265.967 210.825 273.004 211.828C280.041 212.831 286.559 207.939 287.562 200.902C288.565 193.865 283.673 187.347 276.636 186.344C269.599 185.342 263.081 190.233 262.078 197.27Z" fill="#1F2F57"/>
<path d="M264.261 191.435C263.909 193.905 265.626 196.192 268.096 196.544C270.566 196.896 272.853 195.179 273.205 192.709C273.557 190.239 271.84 187.952 269.37 187.6C266.9 187.249 264.613 188.966 264.261 191.435Z" fill="white"/>
<path d="M279.242 208.198C279.034 209.658 280.049 211.009 281.508 211.218C282.968 211.426 284.319 210.411 284.528 208.952C284.736 207.492 283.721 206.14 282.262 205.932C280.802 205.723 279.45 206.738 279.242 208.198Z" fill="white"/>
<path d="M216.192 169.897C212.144 170.731 208.677 173.528 205.647 176.196C204.002 177.644 204.125 179.554 203.478 181.624C203.276 182.272 201.433 187.838 200.789 187.747C203.483 188.129 206.207 187.185 208.578 185.851C210.949 184.516 213.078 182.79 215.416 181.398C220.551 178.341 226.731 176.982 232.637 177.893C230.792 175.323 228.736 172.301 225.784 171.025C222.773 169.722 219.433 169.229 216.192 169.897Z" fill="#C9763A"/>
<path d="M288.96 180.269C292.613 182.201 295.162 185.855 297.325 189.263C298.499 191.113 297.848 192.913 297.891 195.08C297.904 195.759 298.119 201.618 298.763 201.71C296.07 201.324 293.718 199.657 291.814 197.713C289.91 195.769 288.348 193.516 286.492 191.527C282.416 187.157 276.862 184.126 270.936 183.351C273.426 181.399 276.244 179.072 279.435 178.671C282.69 178.262 286.035 178.722 288.96 180.269Z" fill="#C9763A"/>
<path d="M284.985 182.909C288.584 186.544 292.674 189.529 297.859 191.377C294.703 192.294 290.576 192.279 287.604 190.835C283.964 189.067 281.729 185.358 279.853 181.773C277.977 178.188 276.124 174.371 272.83 172.021C275.085 171.119 276.615 172.703 277.858 174.375C280.131 177.43 282.435 180.333 284.985 182.909Z" fill="#A6571E"/>
<path d="M217.674 173.315C213.203 175.8 208.442 177.523 202.947 177.849C205.721 179.611 209.688 180.75 212.945 180.194C216.934 179.514 220.117 176.577 222.919 173.659C225.722 170.741 228.567 167.593 232.387 166.257C230.474 164.762 228.562 165.855 226.901 167.112C223.865 169.411 220.842 171.554 217.674 173.315Z" fill="#A6571E"/>
<path d="M218.003 206.252C217.531 206.177 217.059 206.129 216.616 206.323C215.826 206.668 215.47 207.584 215.289 208.427C215.108 209.27 214.999 210.183 214.437 210.837C214.088 211.243 213.407 211.487 213.037 211.1C212.903 210.96 212.842 210.768 212.795 210.58C212.578 209.722 212.557 208.795 212.123 208.024C210.611 205.332 210.244 211.241 210.211 211.999C210.108 214.347 210.157 216.851 208.902 218.935C208.457 219.674 207.562 220.385 206.809 219.965C206.244 219.649 206.141 218.884 206.184 218.239C206.355 215.657 207.783 213.023 206.849 210.61C206.398 209.446 205.418 208.44 205.416 207.192C205.413 205.493 207.243 204.161 207.117 202.466C207.005 200.958 204.196 198.82 206.086 197.493C207.697 196.362 209.355 199.509 210.358 200.393C212.535 202.313 215.647 202.592 218.489 203.181C219.119 203.312 219.783 203.483 220.224 203.952C220.912 204.684 220.53 205.887 219.673 206.253C219.153 206.473 218.578 206.343 218.003 206.252Z" fill="#A2C8ED"/>
<path d="M276.074 214.529C276.548 214.589 277.014 214.675 277.386 214.985C278.048 215.537 278.134 216.516 278.073 217.376C278.011 218.236 277.861 219.143 278.218 219.928C278.44 220.416 279.025 220.84 279.489 220.572C279.656 220.475 279.769 220.308 279.867 220.141C280.315 219.378 280.594 218.494 281.226 217.874C283.43 215.712 282.131 221.488 281.951 222.225C281.394 224.508 280.648 226.899 281.27 229.25C281.491 230.084 282.151 231.017 282.992 230.823C283.622 230.678 283.935 229.972 284.075 229.34C284.632 226.813 283.997 223.885 285.568 221.828C286.326 220.836 287.548 220.144 287.899 218.946C288.376 217.315 286.992 215.525 287.586 213.933C288.115 212.516 291.409 211.248 289.965 209.446C288.734 207.91 286.263 210.468 285.053 211.037C282.426 212.272 279.361 211.67 276.467 211.442C275.826 211.391 275.14 211.37 274.586 211.697C273.72 212.208 273.752 213.47 274.472 214.061C274.908 214.42 275.496 214.456 276.074 214.529Z" fill="#A2C8ED"/>
<path d="M159.287 195.034C158.42 200.289 159.568 205.708 162.396 210.217C163.76 212.393 165.484 214.34 167.448 215.992C169.153 217.426 171.022 218.922 173.168 219.618C175.059 220.231 177.101 220.002 178.35 218.324C179.976 216.139 179.542 213.002 179.462 210.463C179.38 207.843 179.713 205.39 180.688 202.951C181.572 200.739 182.81 198.685 184.071 196.672C186.761 192.376 189.75 188.056 190.234 182.866C190.274 182.432 189.597 182.435 189.557 182.866C188.776 191.244 181.449 196.981 179.322 204.894C178.746 207.036 178.739 209.181 178.822 211.383C178.916 213.888 179.25 217.99 176.317 219.063C173.914 219.942 171.271 218.103 169.443 216.72C167.47 215.228 165.652 213.542 164.152 211.568C160.626 206.929 158.99 200.986 159.942 195.213C160.01 194.787 159.358 194.604 159.287 195.034Z" fill="#A6571E"/>
<path d="M193.766 148.542C196.388 145.928 199.545 143.892 203.014 142.595C203.418 142.444 203.243 141.789 202.834 141.942C199.253 143.281 195.995 145.364 193.287 148.063C192.978 148.371 193.457 148.85 193.766 148.542Z" fill="#A6571E"/>
<path d="M199.99 157.99C202.152 151.929 205.014 146.136 208.541 140.752C212.028 135.428 216.097 130.211 221.408 126.599C221.766 126.355 221.428 125.768 221.066 126.014C215.773 129.614 211.707 134.754 208.198 140.043C204.526 145.577 201.567 151.557 199.336 157.81C199.19 158.222 199.844 158.399 199.99 157.99Z" fill="#A6571E"/>
<path d="M297.602 136.622C303.57 146.839 307.797 157.986 310.109 169.59C310.194 170.017 310.847 169.836 310.762 169.41C308.439 157.752 304.182 146.544 298.186 136.28C297.967 135.904 297.381 136.245 297.602 136.622Z" fill="#A6571E"/>
<path d="M315.549 167.731C315.488 163.131 314.069 158.623 311.471 154.826C311.226 154.469 310.639 154.807 310.886 155.168C313.42 158.871 314.812 163.244 314.872 167.732C314.877 168.166 315.554 168.167 315.549 167.731Z" fill="#A6571E"/>
<path d="M331.653 158.68C334.773 167.301 336.353 176.316 336.502 185.477C336.641 194.022 335.987 202.766 338.517 211.055C339.741 215.067 341.697 218.822 344.581 221.891C344.88 222.209 345.358 221.73 345.06 221.412C339.474 215.47 337.724 207.187 337.325 199.285C336.88 190.464 337.536 181.7 336.094 172.937C335.284 168.017 334.002 163.188 332.305 158.5C332.158 158.093 331.505 158.268 331.653 158.68Z" fill="#A6571E"/>
<path d="M267.717 293.618C270.252 296.967 275.551 311.355 279.866 311.752C284.176 312.149 288.853 301.965 290.91 299.169C298.052 289.459 301.25 271.83 312.334 265.921C313.46 265.321 314.773 264.739 315.209 263.54C315.637 262.364 315.034 261.087 314.447 259.982C308.456 248.702 303.118 236.611 296.192 225.877C294.374 223.059 292.333 220.634 289.934 218.285C287.824 216.219 278.686 209.94 275.72 213.622C275.587 213.788 275.585 214.021 275.6 214.233C275.685 215.453 276.088 216.625 276.327 217.824C277.13 221.852 276.044 225.927 274.604 229.678C273.462 232.655 273.021 235.569 271.489 238.403C267.67 245.468 266.472 253.45 261.899 260.387C258 266.303 253.151 271.541 249.171 277.403C248.653 278.166 248.136 279.151 248.585 279.957C248.94 280.594 249.737 280.803 250.443 280.984C257.485 282.798 263.329 287.821 267.717 293.618Z" fill="white"/>
<path d="M344.769 336.909C344.566 339.706 344.269 342.514 343.888 345.311C342.876 352.713 340.342 361.484 334.094 366.185C327.12 371.445 317.302 371.826 309.936 367.03C302.796 362.377 296.774 351.559 295.143 343.312C293.382 334.398 297.595 322.867 299.677 314.263C301.129 308.313 302.64 302.362 303.485 296.305C304.937 285.88 304.389 275.301 303.378 264.864C302.962 260.544 301.355 255.724 303.473 251.726C305.365 248.144 308.947 245.561 312.648 244.086C316.194 242.682 320.157 242.051 323.859 242.956C334.653 245.586 335.319 260.438 337.259 269.339C338.484 275.004 339.603 280.68 340.615 286.393C341.71 292.545 342.686 298.722 343.579 304.91C345.114 315.559 345.566 326.234 344.769 336.909Z" fill="#C9763A"/>
<path d="M108.064 261.725C109.928 280.855 112.081 301.234 124.254 316.955C127.244 320.817 130.774 324.219 134.812 326.974C135.173 327.22 135.512 326.634 135.154 326.389C119.646 315.809 113.425 296.97 110.756 279.235C109.881 273.423 109.311 267.572 108.741 261.725C108.699 261.296 108.022 261.291 108.064 261.725Z" fill="#A6571E"/>
<path d="M155.723 235.262C148.239 249.451 146.249 266.281 149.97 281.869C151.017 286.254 152.529 290.511 154.459 294.584C154.645 294.978 155.229 294.634 155.044 294.242C148.282 279.972 147.029 263.335 151.294 248.152C152.516 243.802 154.2 239.599 156.308 235.602C156.511 235.218 155.927 234.876 155.723 235.262Z" fill="#A6571E"/>
<path d="M141.799 331.461C149.367 323.875 161.365 326.837 170.73 328.082C181.471 329.509 192.244 330.823 203.077 331.266C208.52 331.489 213.946 331.413 219.387 331.207C224.663 331.008 229.922 331.004 235.049 332.429C239.969 333.796 244.559 336.077 249.174 338.217C251.449 339.272 253.719 340.336 255.99 341.399C258.242 342.453 260.511 343.232 262.868 344.004C267.991 345.681 272.282 350.05 274.943 354.619C275.662 355.853 276.32 357.154 276.796 358.502C277.254 359.796 277.356 361.148 277.541 362.499C277.95 365.493 278.02 368.388 278.055 371.405C278.06 371.84 278.737 371.842 278.732 371.405C278.702 368.818 278.796 366.226 278.405 363.66C278.046 361.3 277.837 359.076 276.856 356.871C274.941 352.565 271.866 348.767 268.061 345.988C266.137 344.583 264.088 343.66 261.814 342.993C259.101 342.196 256.562 340.929 254.019 339.713C249.426 337.518 244.798 335.271 240.057 333.412C235.136 331.482 230.135 330.481 224.847 330.424C219.137 330.363 213.438 330.818 207.724 330.723C196.31 330.535 184.949 329.261 173.64 327.788C167.51 326.99 161.235 325.645 155.031 325.811C150.031 325.944 144.931 327.363 141.32 330.983C141.013 331.291 141.491 331.77 141.799 331.461Z" fill="#A6571E"/>
<path d="M208.446 360.227C210.339 364.211 213.268 367.64 216.89 370.154C217.249 370.403 217.588 369.816 217.232 369.569C213.704 367.119 210.874 363.762 209.031 359.884C208.844 359.491 208.26 359.835 208.446 360.227Z" fill="#A6571E"/>
<path d="M233.132 357.651C237.274 356.017 242.136 357.459 245.086 360.708C248.298 364.245 249.052 369.436 247.955 373.966C247.852 374.389 248.505 374.57 248.608 374.146C249.764 369.377 248.946 363.946 245.565 360.23C242.466 356.824 237.306 355.282 232.953 356.999C232.551 357.156 232.725 357.811 233.132 357.651Z" fill="#A6571E"/>
<path d="M251.412 354.803C256.504 354.167 261.532 356.407 264.495 360.596C267.109 364.291 267.727 368.983 266.764 373.343C266.67 373.768 267.323 373.949 267.417 373.523C268.438 368.901 267.762 363.911 264.924 360.036C261.816 355.792 256.652 353.471 251.413 354.126C250.985 354.179 250.98 354.857 251.412 354.803Z" fill="#A6571E"/>
<path d="M193.571 185.559C192.059 190.451 190.925 195.451 190.216 200.523C189.609 204.864 189.166 209.355 190.028 213.694C190.902 218.093 193.386 221.361 196.441 224.513C199.756 227.935 202.623 231.434 204.181 236.012C207.288 245.146 203.74 254.236 203.548 263.484C203.463 267.582 204.214 271.718 206.467 275.204C208.495 278.341 211.486 280.789 214.828 282.418C222.285 286.052 232.325 285.573 239.011 280.432C238.857 280.392 238.702 280.351 238.548 280.311C240.956 283.79 244.027 286.437 248.059 287.841C250.486 288.686 253.073 289.025 255.615 289.325C257.803 289.583 260.042 289.133 261.627 287.514C261.932 287.202 261.453 286.723 261.148 287.035C259.339 288.884 256.953 288.834 254.582 288.507C252.302 288.193 250.036 287.859 247.868 287.055C244.177 285.686 241.354 283.178 239.133 279.97C239.039 279.834 238.824 279.73 238.67 279.849C232.617 284.503 223.601 285.292 216.611 282.478C212.963 281.009 209.606 278.573 207.356 275.319C204.859 271.71 204.096 267.386 204.238 263.067C204.518 254.556 207.586 246.137 205.379 237.644C204.378 233.791 202.482 230.206 199.886 227.191C197.056 223.905 193.516 221.151 191.766 217.07C189.778 212.435 190.073 207.175 190.667 202.28C191.348 196.671 192.558 191.138 194.227 185.741C194.353 185.322 193.7 185.143 193.571 185.559Z" fill="#A6571E"/>
<path d="M301.673 259.279C303.2 267.358 304.773 275.545 304.8 283.798C304.828 292.189 302.889 300.416 300.794 308.49C297.092 322.758 292.596 338.188 297.927 352.652C300.297 359.083 304.484 364.85 310.53 368.246C310.91 368.46 311.252 367.875 310.872 367.661C298.635 360.787 295.198 345.613 296.406 332.618C297.893 316.616 305.027 301.618 305.458 285.462C305.694 276.604 303.964 267.762 302.326 259.099C302.245 258.672 301.592 258.853 301.673 259.279Z" fill="#A6571E"/>
<path d="M308.677 259.812C314.738 258.679 321.46 255.187 325.909 254.24C327.184 253.969 328.211 253.846 329.472 254.169C330.963 254.542 332.289 255.356 333.837 255.616C332.894 248.722 329.532 241.813 327.488 235.166C325.985 230.281 324.303 224.885 320.352 221.348C316.079 217.523 309.153 215.125 303.938 212.881C302.286 212.17 300.579 211.479 298.782 211.39C296.713 211.288 294.698 211.99 292.746 212.682C287.505 214.54 282.265 216.398 277.024 218.255C275.108 218.934 273.134 219.01 272.01 220.805C270.915 222.552 270.921 225.009 271.68 226.871C273.041 230.207 276.511 232.312 280.05 232.986C276.781 235.733 276.702 240.801 278.616 244.348C280.931 248.641 286.016 250.946 290.803 250.899C291.123 250.896 291.458 250.885 291.746 251.025C292.034 251.164 292.234 251.432 292.429 251.687C295.87 256.193 302.754 260.919 308.677 259.812Z" fill="#C9763A"/>
<path d="M281.231 232.503C277.863 232.021 274.215 230.697 272.116 227.866C271.059 226.441 270.491 224.619 270.64 222.841C270.803 220.895 272.142 220.289 273.751 219.661C274.875 219.223 276.003 218.798 277.132 218.373C281.705 216.651 286.313 215.015 290.992 213.605C293.32 212.903 296.182 211.654 298.648 212.036C301.086 212.415 303.532 213.417 305.894 214.121C306.313 214.246 306.491 213.592 306.074 213.468C303.891 212.817 301.711 212.061 299.497 211.526C297.51 211.046 295.741 211.546 293.815 212.081C289.416 213.303 285.082 214.747 280.79 216.301C278.601 217.093 276.422 217.914 274.248 218.748C272.733 219.329 270.924 219.81 270.254 221.457C269.22 224.001 270.503 227.217 272.272 229.096C274.529 231.494 277.858 232.698 281.052 233.155C281.478 233.217 281.662 232.565 281.231 232.503Z" fill="#A6571E"/>
<path d="M280.821 233.299C282.669 232.401 284.516 231.501 286.364 230.605C287.243 230.179 288.119 229.791 289.078 229.584C290.06 229.372 291.067 229.312 292.068 229.249C292.501 229.222 292.504 228.545 292.068 228.572C291.076 228.634 290.078 228.698 289.1 228.89C288.157 229.075 287.281 229.419 286.416 229.83C284.43 230.775 282.458 231.753 280.48 232.714C280.088 232.905 280.431 233.489 280.821 233.299Z" fill="#A6571E"/>
<path d="M290.799 250.766C293.847 249.545 297.028 248.698 300.279 248.242C300.709 248.182 300.526 247.529 300.099 247.589C296.848 248.045 293.667 248.892 290.619 250.113C290.219 250.273 290.394 250.928 290.799 250.766Z" fill="#A6571E"/>
<path d="M302.988 259.873C306.932 261.323 311.185 260.844 315.259 260.335C315.686 260.282 315.691 259.604 315.259 259.658C311.244 260.16 307.056 260.649 303.168 259.22C302.759 259.069 302.582 259.724 302.988 259.873Z" fill="#A6571E"/>
<path d="M344.768 336.909C344.744 336.885 344.708 336.873 344.685 336.849C341.496 334.695 338.437 332.327 335.533 329.792C332.558 327.186 329.524 323.83 329.88 319.891C330.308 315 335.771 311.835 336.64 306.991C337.39 302.814 334.51 298.767 334.629 294.531C334.7 292.127 335.795 289.771 337.592 288.164C338.747 287.129 339.746 286.569 340.615 286.391C341.71 292.543 342.686 298.72 343.579 304.908C345.113 315.559 345.565 326.234 344.768 336.909Z" fill="#F3BC81"/>
<path d="M128.023 174.937C125.413 172.876 122.548 171.012 119.315 170.235C116.082 169.458 112.409 169.916 109.89 172.086C108.977 172.872 108.228 173.882 107.895 175.04C107.084 177.856 108.973 180.907 111.55 182.303C115.427 184.405 118.909 183.197 122.884 183C126.918 182.8 130.993 184.134 134.868 185.288C136.501 185.774 138.261 186.407 139.136 187.868C136.34 183.21 132.279 178.297 128.023 174.937Z" fill="white"/>
<path d="M114.733 203.824C112.27 204.507 109.813 205.438 107.863 207.09C105.913 208.742 104.53 211.229 104.732 213.777C104.805 214.7 105.091 215.623 105.658 216.356C107.036 218.137 109.786 218.351 111.822 217.387C114.886 215.936 115.717 213.228 117.4 210.673C119.108 208.08 121.785 206.158 124.26 204.278C125.303 203.486 126.494 202.681 127.798 202.803C123.64 202.421 118.749 202.709 114.733 203.824Z" fill="white"/>
<path d="M375.097 210.979C378.412 211.238 381.781 211.814 384.683 213.437C387.585 215.061 389.97 217.891 390.347 221.195C390.484 222.392 390.348 223.642 389.807 224.718C388.491 227.336 385.033 228.294 382.193 227.571C377.919 226.482 376.183 223.232 373.398 220.389C370.571 217.503 366.674 215.717 363.045 213.934C361.516 213.183 359.794 212.452 358.16 212.932C363.374 211.408 369.691 210.557 375.097 210.979Z" fill="white"/>
<path d="M365.246 241.212C366.591 243.386 367.763 245.737 368.074 248.274C368.384 250.811 367.712 253.575 365.834 255.31C365.154 255.938 364.317 256.422 363.404 256.575C361.183 256.947 359.019 255.237 358.178 253.148C356.913 250.003 358.141 247.45 358.64 244.432C359.146 241.368 358.485 238.14 357.944 235.08C357.716 233.791 357.387 232.391 356.348 231.595C359.657 234.136 363.053 237.667 365.246 241.212Z" fill="white"/>
</svg>
