<?xml version="1.0" encoding="utf-8"?>
<!-- Generator: Adobe Illustrator 27.2.0, SVG Export Plug-In . SVG Version: 6.00 Build 0)  -->
<svg version="1.1" id="Слой_1" xmlns="http://www.w3.org/2000/svg" xmlns:xlink="http://www.w3.org/1999/xlink" x="0px" y="0px"
	 viewBox="0 0 27.5 25.5" style="enable-background:new 0 0 27.5 25.5;" xml:space="preserve">
<path d="M19.3,25.5c-0.1,0-0.2,0-0.3,0c-3.4-1.3-7.2-1.3-10.6,0c-0.4,0.1-0.8-0.1-1-0.4c-0.1-0.4,0.1-0.8,0.4-1c1.6-0.6,3.3-1,5.1-1
	V3.5c-2.5,0-4.9,0.2-7.3,0.5L9,17.5c0.3,1.1-0.3,2.1-1.3,2.5c-1.9,0.7-4,0.7-5.9,0c-1-0.4-1.5-1.4-1.3-2.5L3.8,4.3
	c-1,0.2-1.9,0.3-2.9,0.5C0.5,4.9,0.1,4.6,0,4.2c-0.1-0.4,0.2-0.8,0.6-0.9c1.3-0.3,2.7-0.5,4-0.7c0,0,0,0,0,0C7.4,2.2,10.2,2,13,2
	V0.8C13,0.3,13.3,0,13.8,0s0.8,0.3,0.8,0.8V2c2.8,0,5.6,0.2,8.3,0.6c0,0,0,0,0,0c1.4,0.2,2.7,0.4,4,0.7c0.4,0.1,0.7,0.5,0.6,0.9
	S27,4.9,26.6,4.8c-0.9-0.2-1.9-0.4-2.9-0.5L27,17.5c0.3,1.1-0.3,2.1-1.3,2.5c-1.9,0.7-4,0.7-5.9,0c-1-0.4-1.5-1.4-1.3-2.5L21.8,4
	c-2.4-0.3-4.9-0.5-7.3-0.5V23c1.7,0.1,3.5,0.4,5.1,1c0.4,0.1,0.6,0.6,0.4,1C19.9,25.3,19.6,25.5,19.3,25.5z M22.8,6.5L20,17.9
	c-0.1,0.3,0,0.6,0.3,0.7c1.6,0.6,3.3,0.6,4.9,0c0.3-0.1,0.4-0.4,0.3-0.7L22.8,6.5z M4.8,6.5L2,17.9c-0.1,0.3,0,0.6,0.3,0.7
	c1.6,0.6,3.3,0.6,4.9,0c0.3-0.1,0.4-0.4,0.3-0.7L4.8,6.5z"/>
</svg>
