<?xml version="1.0" encoding="utf-8"?>
<!-- Generator: Adobe Illustrator 27.2.0, SVG Export Plug-In . SVG Version: 6.00 Build 0)  -->
<svg version="1.1" id="Слой_1" xmlns="http://www.w3.org/2000/svg" xmlns:xlink="http://www.w3.org/1999/xlink" x="0px" y="0px"
	 viewBox="0 0 19.5 19.5" style="enable-background:new 0 0 19.5 19.5;" xml:space="preserve">
<style type="text/css">
	.st0{fill-rule:evenodd;clip-rule:evenodd;}
</style>
<path class="st0" d="M8.2,1.5c-3.7,0-6.8,3-6.8,6.8c0,3.7,3,6.8,6.8,6.8c1.9,0,3.6-0.8,4.8-2c1.2-1.2,2-2.9,2-4.8
	C15,4.5,12,1.5,8.2,1.5z M0,8.2C0,3.7,3.7,0,8.2,0c4.6,0,8.2,3.7,8.2,8.2c0,2-0.7,3.8-1.9,5.3l4.7,4.7c0.3,0.3,0.3,0.8,0,1.1
	s-0.8,0.3-1.1,0l-4.7-4.7c-1.4,1.2-3.3,1.9-5.3,1.9C3.7,16.5,0,12.8,0,8.2z"/>
</svg>
