<?xml version="1.0" encoding="utf-8"?>
<!-- Generator: Adobe Illustrator 27.2.0, SVG Export Plug-In . SVG Version: 6.00 Build 0)  -->
<svg version="1.1" id="Слой_1" xmlns="http://www.w3.org/2000/svg" xmlns:xlink="http://www.w3.org/1999/xlink" x="0px" y="0px"
	 viewBox="0 0 25.5 23.5" style="enable-background:new 0 0 25.5 23.5;" xml:space="preserve">
<path d="M12.8,23.5c-0.1,0-0.2,0-0.4-0.1C11.9,23.1,0,16.7,0,6.8C0,3,3.1,0,7,0c2.3,0,4.5,1.1,5.8,2.9C14,1.1,16.2,0,18.5,0
	c3.9,0,7,3,7,6.8c0,10-11.9,16.4-12.4,16.7C13,23.5,12.9,23.5,12.8,23.5z M7,1.5c-3,0-5.5,2.4-5.5,5.2c0,8.2,9.3,14,11.2,15.1
	c1.9-1.1,11.2-7,11.2-15.1c0-2.9-2.5-5.2-5.5-5.2c-2.2,0-4.2,1.3-5.1,3.2c-0.2,0.5-1.1,0.5-1.4,0C11.2,2.8,9.2,1.5,7,1.5z"/>
</svg>
