<?xml version="1.0" encoding="utf-8"?>
<!-- Generator: Adobe Illustrator 27.2.0, SVG Export Plug-In . SVG Version: 6.00 Build 0)  -->
<svg version="1.1" id="Слой_1" xmlns="http://www.w3.org/2000/svg" xmlns:xlink="http://www.w3.org/1999/xlink" x="0px" y="0px"
	 viewBox="0 0 21.5 27.5" style="enable-background:new 0 0 21.5 27.5;" xml:space="preserve">
<path d="M10.7,11.5C7.6,11.5,5,8.9,5,5.8S7.6,0,10.7,0s5.7,2.6,5.7,5.8S13.9,11.5,10.7,11.5z M10.7,1.5c-2.3,0-4.3,1.9-4.3,4.2
	S8.4,10,10.7,10S15,8.1,15,5.8S13.1,1.5,10.7,1.5z"/>
<path d="M10.7,27.5c-3.6,0-7.1-0.8-10.3-2.2C0.2,25.1,0,24.9,0,24.6C0.1,18.7,4.9,14,10.7,14c5.8,0,10.6,4.7,10.7,10.6
	c0,0.3-0.2,0.6-0.4,0.7C17.8,26.7,14.3,27.5,10.7,27.5z M1.5,24.1c2.9,1.3,6,1.9,9.2,1.9c3.2,0,6.3-0.6,9.2-1.9
	c-0.3-4.8-4.4-8.6-9.2-8.6S1.9,19.3,1.5,24.1z"/>
</svg>
