<?xml version="1.0" encoding="utf-8"?>
<!-- Generator: Adobe Illustrator 27.2.0, SVG Export Plug-In . SVG Version: 6.00 Build 0)  -->
<svg version="1.1" id="Слой_1" xmlns="http://www.w3.org/2000/svg" xmlns:xlink="http://www.w3.org/1999/xlink" x="0px" y="0px"
	 viewBox="0 0 43 35" style="enable-background:new 0 0 43 35;" xml:space="preserve">
<style type="text/css">
	.st0{fill:#141B34;}
</style>
<path class="st0" d="M25.5,35h-8c-7.9,0-11.9,0-14.7-2.8C0,29.4,0,25.4,0,17.5S0,5.6,2.8,2.8S9.6,0,17.5,0h8c7.9,0,11.9,0,14.7,2.8
	C43,5.6,43,9.6,43,17.5s0,11.9-2.8,14.7C37.4,35,33.4,35,25.5,35z M17.5,3C10.4,3,6.8,3,4.9,4.9S3,10.4,3,17.5s0,10.7,1.9,12.6
	C6.8,32,10.4,32,17.5,32h8c7.1,0,10.7,0,12.6-1.9C40,28.2,40,24.6,40,17.5s0-10.7-1.9-12.6C36.2,3,32.6,3,25.5,3H17.5z"/>
<path class="st0" d="M26.5,27.5c-1.4,0-2.2-0.6-3.4-1.3c-3.4-2.2-5.2-5.1-5.1-7.9c0.1-1.8,1-3.4,2.5-4.3c2-1.1,4.2-1.1,5.9,0
	c1.8-1.1,4-1.1,5.9,0c1.5,0.8,2.5,2.4,2.5,4.3c0.1,2.8-1.7,5.7-5.1,7.9C28.7,26.9,27.9,27.5,26.5,27.5z M23.6,16.2
	c-0.4,0-1,0.1-1.6,0.4c-0.6,0.3-1,1-1,1.8c0,0.8,0.3,2.9,3.8,5.3c1.1,0.7,1.3,0.8,1.7,0.8s0.7-0.1,1.7-0.8c3.5-2.3,3.8-4.5,3.8-5.3
	c0-0.8-0.4-1.4-1-1.8l0,0c-1.5-0.8-2.5-0.3-2.9,0c-0.6,0.4-1,0.7-1.6,0.7s-1-0.3-1.6-0.7C24.7,16.4,24.2,16.2,23.6,16.2z"/>
<path class="st0" d="M15.5,27.5h-6C8.7,27.5,8,26.8,8,26s0.7-1.5,1.5-1.5h6c0.8,0,1.5,0.7,1.5,1.5S16.3,27.5,15.5,27.5z"/>
</svg>
