<?xml version="1.0" encoding="utf-8"?>
<!-- Generator: Adobe Illustrator 27.2.0, SVG Export Plug-In . SVG Version: 6.00 Build 0)  -->
<svg version="1.1" id="Слой_1" xmlns="http://www.w3.org/2000/svg" xmlns:xlink="http://www.w3.org/1999/xlink" x="0px" y="0px"
	 viewBox="0 0 43 35" style="enable-background:new 0 0 43 35;" xml:space="preserve">
<style type="text/css">
	.st0{fill:#141B34;}
</style>
<path class="st0" d="M29.9,24.6c-0.5,0-1.1-0.1-1.7-0.5l-1.7-0.9l-1.7,0.9c-1.7,0.9-2.7,0.4-3.1,0.1c-0.4-0.3-1.2-1.1-0.8-2.9
	l0.4-1.5L20,18.5c-0.8-0.8-1.2-1.8-0.9-2.7c0.3-0.9,1.1-1.6,2.3-1.7l1.8-0.3l1-1.8c0.5-1,1.4-1.6,2.4-1.6c0,0,0,0,0,0
	c1,0,1.8,0.6,2.4,1.6l1,1.8l1.8,0.3c1.2,0.2,2,0.8,2.3,1.8c0.3,0.9,0,1.9-0.9,2.7l-1.3,1.2l0.4,1.5c0.4,1.8-0.4,2.6-0.8,2.9
	C31.1,24.4,30.6,24.6,29.9,24.6z M26.4,23.1C26.4,23.1,26.4,23.1,26.4,23.1L26.4,23.1z M22.7,16.9l0.9,0.8c0.6,0.6,0.9,1.6,0.7,2.5
	L24,21.1l1.1-0.6c0.8-0.4,1.9-0.4,2.7,0l1.1,0.6l-0.2-0.9c-0.2-0.9,0.1-1.9,0.7-2.5l0.9-0.8l-1.1-0.2c-0.8-0.1-1.6-0.7-2-1.4
	l-0.8-1.4l-0.8,1.5c-0.4,0.7-1.1,1.3-1.9,1.4L22.7,16.9z M31.5,19.9L31.5,19.9C31.5,19.9,31.5,19.9,31.5,19.9z M31.3,17.1L31.3,17.1
	L31.3,17.1z M21.9,16.2L21.9,16.2L21.9,16.2z M23.1,14C23.1,14,23.1,14,23.1,14L23.1,14z M29.9,14L29.9,14C29.9,14,29.9,14,29.9,14z
	 M26.9,13.2L26.9,13.2L26.9,13.2z"/>
<path class="st0" d="M13.5,35c-0.8,0-1.5-0.7-1.5-1.5v-6.6c0-0.8,0.7-1.5,1.5-1.5s1.5,0.7,1.5,1.5v6.6C15,34.3,14.3,35,13.5,35z"/>
<path class="st0" d="M13.5,9.6c-0.8,0-1.5-0.7-1.5-1.5V1.5C12,0.7,12.7,0,13.5,0S15,0.7,15,1.5v6.6C15,8.9,14.3,9.6,13.5,9.6z"/>
<path class="st0" d="M25.5,35h-8c-6.9,0-10.3,0-13.1-1.9c-1-0.7-1.9-1.6-2.6-2.6c-1.3-1.9-1.7-4.2-1.8-7.1c0-0.6,0.2-1.2,0.6-1.7
	C1.1,21.3,1.8,21,2.4,21c1.9,0,3.5-1.6,3.5-3.5S4.4,14,2.4,14c-0.7,0-1.3-0.3-1.8-0.8C0.2,12.8,0,12.2,0,11.6
	c0.1-2.9,0.5-5.2,1.8-7.1c0.7-1,1.6-1.9,2.6-2.6C7.1,0,10.6,0,17.5,0h8c6.9,0,10.3,0,13.1,1.9c1,0.7,1.9,1.6,2.6,2.6
	c1.3,1.9,1.7,4.2,1.8,7.1c0,0,0,0,0,0.1v11.8c-0.1,2.9-0.5,5.2-1.8,7.1c-0.7,1-1.6,1.9-2.6,2.6C35.9,35,32.4,35,25.5,35z M3,24
	c0.2,2.4,0.5,3.8,1.3,4.8c0.5,0.7,1.1,1.3,1.8,1.8C8.1,32,11.2,32,17.5,32h8c6.3,0,9.4,0,11.3-1.4c0.7-0.5,1.3-1.1,1.8-1.8
	c0.8-1.1,1.2-2.7,1.3-5.5l0-11.6c-0.1-2.8-0.5-4.3-1.3-5.5c-0.5-0.7-1.1-1.3-1.8-1.8C34.9,3,31.8,3,25.5,3h-8C11.2,3,8.1,3,6.1,4.4
	C5.4,4.9,4.8,5.5,4.3,6.2C3.6,7.2,3.2,8.6,3,11c3.3,0.3,5.9,3.1,5.9,6.5C8.9,20.9,6.3,23.7,3,24z"/>
</svg>
