<?xml version="1.0" encoding="utf-8"?>
<!-- Generator: Adobe Illustrator 27.2.0, SVG Export Plug-In . SVG Version: 6.00 Build 0)  -->
<svg version="1.1" id="Слой_1" xmlns="http://www.w3.org/2000/svg" xmlns:xlink="http://www.w3.org/1999/xlink" x="0px" y="0px"
	 viewBox="0 0 27.4 25.5" style="enable-background:new 0 0 27.4 25.5;" xml:space="preserve">
<path d="M21.8,25.5c-1,0-1.8-0.8-1.8-1.8s0.8-1.8,1.8-1.8s1.8,0.8,1.8,1.8S22.7,25.5,21.8,25.5z M21.8,23.5c-0.1,0-0.2,0.1-0.2,0.2
	c0,0.3,0.5,0.3,0.5,0C22,23.6,21.9,23.5,21.8,23.5z M4.8,25.5c-1,0-1.8-0.8-1.8-1.8S3.8,22,4.8,22s1.8,0.8,1.8,1.8
	S5.7,25.5,4.8,25.5z M4.8,23.5c-0.1,0-0.2,0.1-0.2,0.2C4.5,24,5,24,5,23.8C5,23.6,4.9,23.5,4.8,23.5z M24.8,20.5h-21
	c-0.4,0-0.8-0.3-0.8-0.8c0-2.3,1.6-4.2,3.8-4.7L3.8,4c0,0,0,0,0,0L3.3,2.1C3.2,1.7,2.9,1.5,2.6,1.5H0.8C0.3,1.5,0,1.2,0,0.8
	S0.3,0,0.8,0h1.8c1,0,1.9,0.7,2.2,1.7L5.1,3c7.3-0.1,14.6,0.7,21.7,2.5c0.2,0.1,0.4,0.2,0.5,0.4s0.1,0.4,0.1,0.6
	c-1.1,3.3-2.4,6.5-3.9,9.6c-0.1,0.3-0.4,0.4-0.7,0.4H7.8c0,0,0,0,0,0c-1.5,0-2.8,1.1-3.1,2.5h20.2c0.4,0,0.8,0.3,0.8,0.8
	S25.2,20.5,24.8,20.5z M8.3,15h13.9c1.3-2.7,2.4-5.4,3.4-8.2C19.1,5.2,12.3,4.4,5.5,4.5L8.3,15z"/>
</svg>
