<?xml version="1.0" encoding="utf-8"?>
<!-- Generator: Adobe Illustrator 27.2.0, SVG Export Plug-In . SVG Version: 6.00 Build 0)  -->
<svg version="1.1" id="Слой_1" xmlns="http://www.w3.org/2000/svg" xmlns:xlink="http://www.w3.org/1999/xlink" x="0px" y="0px"
	 viewBox="0 0 18.4 18" style="enable-background:new 0 0 18.4 18;" xml:space="preserve">
<path d="M5.4,8.2H3.1C1.4,8.2,0,6.9,0,5.2V3c0-1.7,1.4-3,3.1-3h2.3c1.7,0,3.1,1.3,3.1,3v2.2C8.4,6.9,7.1,8.2,5.4,8.2z M3.1,1.5
	C2.2,1.5,1.5,2.2,1.5,3v2.2c0,0.8,0.7,1.5,1.6,1.5h2.3c0.9,0,1.6-0.7,1.6-1.5V3c0-0.8-0.7-1.5-1.6-1.5H3.1z"/>
<path d="M5.4,18H3.1C1.4,18,0,16.7,0,15v-2.2c0-1.7,1.4-3,3.1-3h2.3c1.7,0,3.1,1.3,3.1,3V15C8.4,16.7,7.1,18,5.4,18z M3.1,11.2
	c-0.9,0-1.6,0.7-1.6,1.5V15c0,0.8,0.7,1.5,1.6,1.5h2.3c0.9,0,1.6-0.7,1.6-1.5v-2.2c0-0.8-0.7-1.5-1.6-1.5H3.1z"/>
<path d="M15.4,8.2h-2.3c-1.7,0-3.1-1.3-3.1-3V3c0-1.7,1.4-3,3.1-3h2.3c1.7,0,3.1,1.3,3.1,3v2.2C18.4,6.9,17,8.2,15.4,8.2z M13.1,1.5
	c-0.9,0-1.6,0.7-1.6,1.5v2.2c0,0.8,0.7,1.5,1.6,1.5h2.3c0.9,0,1.6-0.7,1.6-1.5V3c0-0.8-0.7-1.5-1.6-1.5H13.1z"/>
<path d="M15.4,18h-2.3c-1.7,0-3.1-1.3-3.1-3v-2.2c0-1.7,1.4-3,3.1-3h2.3c1.7,0,3.1,1.3,3.1,3V15C18.4,16.7,17,18,15.4,18z
	 M13.1,11.2c-0.9,0-1.6,0.7-1.6,1.5V15c0,0.8,0.7,1.5,1.6,1.5h2.3c0.9,0,1.6-0.7,1.6-1.5v-2.2c0-0.8-0.7-1.5-1.6-1.5H13.1z"/>
</svg>
