<svg width="24" height="25" viewBox="0 0 24 25" fill="none" xmlns="http://www.w3.org/2000/svg">
<path d="M8.93555 20.8428L8.92578 20.8457L8.92188 20.8389L8.93555 20.8428ZM19.2363 11.5742L19.1797 11.4316L19.1592 11.4922C19.1667 11.4595 19.1745 11.427 19.1816 11.3945C19.1993 11.4559 19.2187 11.5154 19.2363 11.5742ZM4.84277 11.502L4.81934 11.4316L4.76563 11.5645C4.78224 11.5088 4.80065 11.4525 4.81738 11.3945C4.82529 11.4303 4.83448 11.466 4.84277 11.502ZM7.24707 3.36621C7.23833 3.37374 7.22943 3.3811 7.2207 3.38867L7.24121 3.36621H7.24707ZM16.7783 3.38867C16.7696 3.3811 16.7607 3.37374 16.752 3.36621H16.7578L16.7783 3.38867ZM15.0762 20.8389L15.0723 20.8457L15.0635 20.8428L15.0762 20.8389Z" fill="black" stroke="black" stroke-width="1.00411"/>
<path d="M11.0326 8.54742C9.74146 7.90184 8.13734 7.90184 6.84622 8.54742C6.61371 8.66368 6.51948 8.94641 6.63574 9.17893C6.75204 9.41144 7.03468 9.50572 7.26725 9.38941C8.29869 8.87369 9.58025 8.87369 10.6117 9.38941C10.6793 9.42321 10.7511 9.43921 10.8218 9.43916C10.9944 9.43916 11.1607 9.34385 11.2432 9.17893C11.3594 8.94641 11.2651 8.66368 11.0326 8.54742Z" fill="black"/>
<path d="M17.1537 8.54742C15.8626 7.90184 14.2584 7.90184 12.9673 8.54742C12.7348 8.66368 12.6406 8.94641 12.7568 9.17893C12.8731 9.41144 13.1558 9.50572 13.3883 9.38941C14.4197 8.87369 15.7013 8.87369 16.7327 9.38941C16.9656 9.50586 17.2482 9.41097 17.3642 9.17893C17.4805 8.94641 17.3862 8.66368 17.1537 8.54742Z" fill="black"/>
</svg>
