<svg width="21" height="21" viewBox="0 0 21 21" fill="none" xmlns="http://www.w3.org/2000/svg">
<path d="M14.6117 2.98667L16.2992 1.29917C17.0314 0.566942 18.2186 0.566942 18.9508 1.29917C19.6831 2.03141 19.6831 3.21859 18.9508 3.95083L8.33218 14.5695C7.80351 15.0981 7.15144 15.4868 6.43489 15.7002L3.75 16.5L4.54978 13.8151C4.76323 13.0986 5.15185 12.4465 5.68052 11.9178L14.6117 2.98667ZM14.6117 2.98667L17.25 5.62499M15.75 12.5V17.25C15.75 18.4926 14.7426 19.5 13.5 19.5H3C1.75736 19.5 0.75 18.4926 0.75 17.25V6.74999C0.75 5.50735 1.75736 4.49999 3 4.49999H7.75" stroke="black" stroke-width="1.5" stroke-linecap="round" stroke-linejoin="round"/>
</svg>
