<svg width="28" height="30" viewBox="0 0 28 30" fill="none" xmlns="http://www.w3.org/2000/svg">
<path d="M5.69556 15.2687C5.63799 15.0959 5.63794 14.9089 5.6954 14.7362C6.85237 11.2581 10.1333 8.75 13.9999 8.75C17.8648 8.75 21.1445 11.2558 22.3029 14.7313C22.3604 14.9041 22.3605 15.0911 22.303 15.2638C21.1461 18.7419 17.8652 21.25 13.9985 21.25C10.1336 21.25 6.85397 18.7442 5.69556 15.2687Z" stroke="#F00000" stroke-width="1.5" stroke-linecap="round" stroke-linejoin="round"/>
<path d="M16.4993 15C16.4993 16.3807 15.38 17.5 13.9993 17.5C12.6186 17.5 11.4993 16.3807 11.4993 15C11.4993 13.6193 12.6186 12.5 13.9993 12.5C15.38 12.5 16.4993 13.6193 16.4993 15Z" stroke="#F00000" stroke-width="1.5" stroke-linecap="round" stroke-linejoin="round"/>
</svg>
