
<svg width="15" height="14" viewBox="0 0 15 14" fill="none" xmlns="http://www.w3.org/2000/svg">
<path d="M7.26331 12.9404L7.25896 12.9381L7.24386 12.9299C7.231 12.9229 7.2126 12.9128 7.18905 12.8997C7.14195 12.8734 7.07416 12.8349 6.98864 12.7846C6.81767 12.684 6.57545 12.5359 6.2857 12.3433C5.70716 11.9587 4.93414 11.3934 4.15906 10.6709C2.62521 9.24103 1 7.11673 1 4.5C1 2.54796 2.6424 1 4.625 1C5.79092 1 6.83488 1.53273 7.5 2.36773C8.16512 1.53273 9.20908 1 10.375 1C12.3576 1 14 2.54796 14 4.5C14 7.11673 12.3748 9.24103 10.8409 10.6709C10.0659 11.3934 9.29284 11.9587 8.7143 12.3433C8.42455 12.5359 8.18233 12.684 8.01136 12.7846C7.92584 12.8349 7.85805 12.8734 7.81095 12.8997C7.7874 12.9128 7.769 12.9229 7.75614 12.9299L7.74104 12.9381L7.73669 12.9404L7.73485 12.9414C7.58821 13.0193 7.41179 13.0193 7.26515 12.9414L7.26331 12.9404Z" fill="#F00000" stroke="#F00000" stroke-width="2" stroke-linejoin="round"/>
</svg>
