<?xml version="1.0" encoding="utf-8"?>
<!-- Generator: Adobe Illustrator 27.2.0, SVG Export Plug-In . SVG Version: 6.00 Build 0)  -->
<svg version="1.1" id="Слой_1" xmlns="http://www.w3.org/2000/svg" xmlns:xlink="http://www.w3.org/1999/xlink" x="0px" y="0px"
	 viewBox="0 0 18 19.8" style="enable-background:new 0 0 18 19.8;" xml:space="preserve">
<path d="M9,19.8c-1.8,0-3.5-0.5-5-1.5c-1.5-1-2.6-2.3-3.3-4C0,12.7-0.2,10.9,0.1,9.2c0.3-1.7,1.1-3.3,2.4-4.6
	c0.2-0.2,0.4-0.2,0.6-0.2c0.2,0,0.4,0.1,0.6,0.3c0.5,0.7,1.1,1.2,1.7,1.7c0.1-1,0.4-2,0.9-2.9c0.6-1.3,1.5-2.4,2.7-3.3
	C9.1,0,9.3,0,9.5,0C9.7,0,9.8,0.1,10,0.3c0.7,0.9,1.6,1.7,2.7,2.2l0,0c1.9,0.8,3.4,2.3,4.4,4.1c0.9,1.8,1.2,3.9,0.8,6
	c-0.4,2-1.5,3.8-3.1,5.1C13.1,19.1,11.1,19.8,9,19.8C9,19.8,9,19.8,9,19.8z M3,6.2c-0.7,0.9-1.2,2-1.4,3.2c-0.3,1.4-0.1,2.9,0.5,4.3
	c0.6,1.4,1.5,2.5,2.8,3.3c1.2,0.8,2.7,1.2,4.1,1.2c0,0,0,0,0,0c1.7,0,3.4-0.6,4.7-1.7c1.3-1.1,2.3-2.6,2.6-4.3s0.1-3.4-0.7-5
	c-0.8-1.5-2.1-2.8-3.6-3.4c0,0,0,0,0,0c-1-0.5-2-1.2-2.8-2.1C8.6,2.5,8,3.3,7.6,4.1C7.1,5.2,6.8,6.4,6.8,7.6c0,0.3-0.1,0.5-0.4,0.6
	c-0.2,0.1-0.5,0.1-0.7,0C4.7,7.8,3.8,7.1,3,6.2z"/>
<path d="M9,16.8C9,16.8,9,16.8,9,16.8c-0.7,0-1.4-0.2-2.1-0.5c-0.6-0.3-1.2-0.8-1.6-1.4c-0.4-0.6-0.7-1.2-0.8-1.9
	c-0.1-0.7,0-1.4,0.2-2.1c0.1-0.2,0.3-0.4,0.5-0.5c0.2-0.1,0.5,0,0.7,0.1C6.2,10.8,6.6,11,7,11.1c0.4-1.2,1-2.3,2-3.1
	c0.2-0.1,0.4-0.2,0.6-0.2c1.1,0.1,2.2,0.7,2.9,1.6c0.7,0.9,1.1,2,1,3.1c-0.1,1.1-0.6,2.2-1.4,3C11.2,16.3,10.2,16.8,9,16.8z M6,12.3
	c0,0.1,0,0.3,0,0.4c0.1,0.5,0.3,0.9,0.5,1.3c0.3,0.4,0.6,0.7,1.1,0.9c0.4,0.2,0.9,0.3,1.4,0.3c0,0,0,0,0,0c0.8,0,1.5-0.3,2-0.8
	c0.6-0.5,0.9-1.2,0.9-2c0-0.8-0.2-1.5-0.7-2.1c-0.4-0.5-1-0.9-1.6-1c-0.8,0.8-1.3,1.8-1.4,2.9c0,0.2-0.1,0.4-0.3,0.5
	c-0.2,0.1-0.4,0.2-0.6,0.1C6.9,12.7,6.4,12.5,6,12.3z"/>
</svg>
