<svg width="24" height="24" viewBox="0 0 24 24" fill="none" xmlns="http://www.w3.org/2000/svg">
<path d="M23.0625 5.31802C23.0625 4.81013 22.8197 4.28494 22.2946 3.76277C21.7676 3.23884 20.9813 2.74547 19.9721 2.32109C17.9557 1.47313 15.1376 0.9375 12.0006 0.9375C8.86299 0.937502 6.04456 1.47313 4.028 2.32109C3.01876 2.74548 2.23241 3.23884 1.70544 3.76277C1.18025 4.28494 0.9375 4.81013 0.9375 5.31802C0.937503 5.82591 1.18028 6.35116 1.70549 6.87346C2.23247 7.39751 3.01881 7.89105 4.02805 8.3156C6.0446 9.16388 8.86303 9.69983 12.0006 9.69983C15.1376 9.69983 17.9557 9.16392 19.9721 8.31564C20.9812 7.8911 21.7675 7.39756 22.2945 6.8735C22.8197 6.3512 23.0625 5.82593 23.0625 5.31802ZM24 5.31802C24 6.1493 23.5974 6.89995 22.9556 7.53822C22.3156 8.17474 21.4132 8.72646 20.3356 9.17976C18.1787 10.0872 15.2315 10.6373 12.0006 10.6373C8.76918 10.6373 5.82166 10.0872 3.66454 9.17976C2.58694 8.72646 1.68451 8.17474 1.04443 7.53822C0.402592 6.89995 2.65566e-06 6.1493 0 5.31802C0 4.48672 0.402611 3.73613 1.04448 3.09796C1.68457 2.46156 2.58699 1.91001 3.66458 1.45688C5.8217 0.54981 8.76921 1.78492e-06 12.0006 0C15.2314 0 18.1786 0.549807 20.3356 1.45688C21.4131 1.91001 22.3155 2.46156 22.9556 3.09796C23.5974 3.73613 24 4.48672 24 5.31802Z" fill="black"/>
<path d="M0 10.6167V5.31836C0 5.05948 0.209867 4.84961 0.46875 4.84961C0.727633 4.84961 0.9375 5.05948 0.9375 5.31836V10.6167C0.937493 10.8755 0.727629 11.0854 0.46875 11.0854C0.209871 11.0854 6.76455e-06 10.8755 0 10.6167Z" fill="black"/>
<path d="M0 10.6168C0 10.3579 0.209867 10.1481 0.46875 10.1481C0.727633 10.1481 0.9375 10.3579 0.9375 10.6168C0.937503 11.1247 1.18028 11.65 1.70549 12.1723C2.23247 12.6963 3.01881 13.1899 4.02805 13.6144C6.0446 14.4627 8.86303 14.9986 12.0006 14.9986C15.1376 14.9986 17.9557 14.4627 19.9721 13.6144C20.9812 13.1899 21.7675 12.6963 22.2945 12.1723C22.8197 11.65 23.0625 11.1247 23.0625 10.6168C23.0625 10.3579 23.2724 10.1481 23.5312 10.1481C23.7901 10.1481 24 10.3579 24 10.6168C24 11.4481 23.5974 12.1987 22.9556 12.837C22.3156 13.4735 21.4132 14.0252 20.3356 14.4785C18.1787 15.386 15.2315 15.9361 12.0006 15.9361C8.76918 15.9361 5.82166 15.386 3.66454 14.4785C2.58694 14.0252 1.68451 13.4735 1.04443 12.837C0.402593 12.1987 2.88654e-06 11.4481 0 10.6168ZM2.59291 8.36191C2.37519 8.50194 2.08518 8.43896 1.94513 8.22124C1.80508 8.00351 1.86802 7.71346 2.08575 7.57341L2.59291 8.36191ZM21.9142 7.57341C22.1319 7.71346 22.1949 8.00351 22.0548 8.22124C21.9148 8.43895 21.6248 8.50194 21.407 8.36191L21.9142 7.57341ZM12.0006 5.29883C16.0925 5.29883 19.751 6.18204 21.9142 7.57341L21.407 8.36191C19.4517 7.10419 15.9944 6.23633 12.0006 6.23633C8.00556 6.23633 4.54827 7.10415 2.59291 8.36191L2.08575 7.57341C4.24893 6.18198 7.90746 5.29883 12.0006 5.29883Z" fill="black"/>
<path d="M23.0596 10.7352V5.43555C23.0596 5.17666 23.2694 4.9668 23.5283 4.9668C23.7872 4.9668 23.9971 5.17666 23.9971 5.43555V10.7352C23.9971 10.9941 23.7872 11.2039 23.5283 11.2039C23.2694 11.2039 23.0596 10.9941 23.0596 10.7352Z" fill="black"/>
<path d="M9.5166 15.3921V10.0938C9.5166 9.83491 9.72647 9.62505 9.98535 9.62505C10.2442 9.62505 10.4541 9.83491 10.4541 10.0938V15.3921C10.4541 15.651 10.2442 15.8608 9.98535 15.8608C9.72647 15.8608 9.51661 15.651 9.5166 15.3921ZM13.5462 15.392V10.0938C13.5462 9.83487 13.756 9.625 14.0149 9.625C14.2738 9.625 14.4837 9.83487 14.4837 10.0938V15.392C14.4837 15.6509 14.2738 15.8608 14.0149 15.8608C13.756 15.8608 13.5462 15.6509 13.5462 15.392Z" fill="black"/>
<path d="M10.4368 17.4612C10.9805 17.4254 11.5323 17.6204 12.001 18.0822C12.4692 17.6209 13.0208 17.4265 13.5641 17.4627C14.1139 17.4994 14.6111 17.7687 14.9738 18.1468C15.6994 18.903 15.9734 20.2117 14.9856 21.24L14.9855 21.24L12.5741 23.7496L12.5741 23.7497C12.2622 24.0742 11.7615 24.0769 11.4445 23.7664L11.4295 23.7514C11.429 23.7508 11.4284 23.7502 11.4278 23.7496L9.01649 21.24C8.0278 20.2108 8.30014 18.9016 9.02624 18.1448C9.38911 17.7666 9.88658 17.4974 10.4368 17.4612ZM11.3759 18.7833C11.0748 18.47 10.7672 18.379 10.4984 18.3967C10.2164 18.4152 9.9294 18.5576 9.70272 18.7939C9.24971 19.266 9.12281 19.9974 9.69251 20.5905L12.001 22.993L14.3095 20.5905C14.8774 19.9992 14.7508 19.2685 14.2973 18.7958C14.0705 18.5594 13.7834 18.4169 13.5017 18.3981C13.2333 18.3802 12.9263 18.4708 12.6261 18.7833L12.6261 18.7833L12.3392 19.0823C12.2508 19.1743 12.1286 19.2264 12.001 19.2264C11.8814 19.2264 11.7666 19.1806 11.6798 19.099L11.6629 19.0823L11.3759 18.7833V18.7833Z" fill="black"/>
<path d="M11.5322 18.7563V15.4668C11.5322 15.2079 11.7421 14.998 12.001 14.998C12.2599 14.998 12.4697 15.2079 12.4697 15.4668V18.7563C12.4697 19.0152 12.2599 19.2251 12.001 19.2251C11.7421 19.2251 11.5322 19.0152 11.5322 18.7563Z" fill="black"/>
</svg>
