<?xml version="1.0" encoding="utf-8"?>
<!-- Generator: Adobe Illustrator 27.2.0, SVG Export Plug-In . SVG Version: 6.00 Build 0)  -->
<svg version="1.1" id="Слой_1" xmlns="http://www.w3.org/2000/svg" xmlns:xlink="http://www.w3.org/1999/xlink" x="0px" y="0px"
	 viewBox="0 0 22.5 16.2" style="enable-background:new 0 0 22.5 16.2;" xml:space="preserve">
<path d="M16.1,11c0-0.7-0.6-1.2-1.3-1.2c-0.6,0-1.2,0.3-1.3,0.9h-3.3C10,10.1,9.4,9.8,8.8,9.8c-0.7,0-1.2,0.6-1.3,1.2
	c0,0.3,0.1,0.5,0.2,0.8c0.1,0.1,0.1,0.2,0,0.3c0,0,0,0,0,0c-0.2,0.2-0.2,0.5-0.2,0.8c0,0.7,0.6,1.2,1.3,1.2c0.6,0,1.2-0.3,1.3-0.9
	h3.3c0.2,0.5,0.7,0.9,1.3,0.9c0.7,0,1.2-0.6,1.3-1.2c0-0.3-0.1-0.5-0.2-0.8c-0.1-0.1-0.1-0.2,0-0.3C16,11.6,16.1,11.3,16.1,11z
	 M15.1,12.6c0.1,0.1,0.1,0.2,0.1,0.3c0,0.2-0.2,0.4-0.4,0.4c-0.1,0-0.2,0-0.3-0.1c-0.1-0.1-0.1-0.2-0.1-0.3c0-0.2-0.2-0.4-0.5-0.4
	H9.8c-0.2,0-0.5,0.2-0.5,0.4c0,0.2-0.2,0.4-0.5,0.4c-0.3,0-0.5-0.4-0.4-0.7c0.3-0.4,0.3-0.9,0-1.3c-0.2-0.3,0-0.6,0.4-0.7
	c0.3,0,0.5,0.2,0.5,0.4c0,0.2,0.2,0.4,0.5,0.4h4.1c0.2,0,0.5-0.2,0.5-0.4c0-0.2,0.2-0.4,0.5-0.4c0.3,0,0.5,0.4,0.4,0.7
	C14.9,11.7,14.9,12.2,15.1,12.6z"/>
<path d="M21.3,5c0-0.5-0.4-0.9-0.9-0.9c-0.5,0-0.8,0.4-0.8,0.9v3.4l0,0c0,0.2-0.2,0.4-0.4,0.4H3.3l0,0c-0.2,0-0.4-0.2-0.4-0.4l0,0
	V5.1c0-0.5-0.4-0.9-0.8-0.9C1.6,4.2,1.2,4.6,1.2,5v9.1l0,0C1.2,14.6,1.6,15,2,15l0,0h18.4l0,0c0.5,0,0.8-0.4,0.8-0.8l0,0V5z
	 M5.4,6.8C4.6,6.8,4,7.4,3.8,8.1h6.9c-0.2-0.7-0.8-1.3-1.6-1.3l0,0L5.4,6.8L5.4,6.8z M13.3,6.8c-0.8,0-1.4,0.6-1.6,1.3h6.9
	c-0.2-0.7-0.8-1.3-1.6-1.3l0,0L13.3,6.8L13.3,6.8z M18.7,2.1c0-0.5-0.4-0.8-0.8-0.9l0,0H4.6l0,0c-0.5,0-0.8,0.4-0.8,0.9v4.5
	c0.4-0.4,1-0.7,1.7-0.7l0,0h3.6c0.9,0,1.7,0.5,2.1,1.2c0.5-0.7,1.2-1.1,2.1-1.2l0,0H17c0.7,0,1.3,0.3,1.7,0.7V2.1z M19.9,3.1
	c0.7-0.2,1.4,0,1.9,0.5l0,0l0,0l0,0C22.2,4,22.5,4.5,22.5,5v9.1c0,1.1-0.9,2.1-2,2.1H2c-1.1,0-2-0.9-2-2.1V5C0,4.5,0.2,4,0.6,3.6
	l0,0l0,0C1.2,3,1.9,2.9,2.6,3.1v-1c0-1.1,0.9-2.1,2-2.1h13.2l0.1,0c1.1,0,2,0.9,2,2.1V3.1z"/>
</svg>
