<svg width="24" height="15" viewBox="0 0 24 15" fill="none" xmlns="http://www.w3.org/2000/svg">
<path d="M19.6896 3.95961C19.6896 3.27061 19.133 2.71436 18.4492 2.71436C18.2247 2.71436 18.015 2.77402 17.8337 2.87842L17.7979 2.89989C17.6669 2.98127 17.5043 2.99306 17.363 2.93138C17.2217 2.86971 17.1197 2.74248 17.0903 2.59113C16.9074 1.64882 16.0773 0.937502 15.0818 0.9375C14.3497 0.9375 13.707 1.32179 13.3448 1.90178L13.3278 1.92957C13.2533 2.05315 13.126 2.13552 12.9828 2.15291C12.8395 2.17029 12.6962 2.12077 12.5944 2.0186C12.4124 1.83609 12.1626 1.72431 11.8862 1.7243C11.6916 1.7243 11.5111 1.77955 11.3578 1.87532L11.3275 1.895C11.1169 2.03747 10.831 1.98594 10.6833 1.77887C10.405 1.38853 9.95035 1.13554 9.43661 1.13553C9.04695 1.13553 8.69231 1.28054 8.42198 1.52019C8.25004 1.67262 7.99295 1.67795 7.81485 1.53278C7.59672 1.35498 7.31922 1.24869 7.01564 1.24869C6.31642 1.24869 5.7497 1.81544 5.74969 2.51431C5.74969 2.52954 5.74999 2.54528 5.75056 2.5616C5.75725 2.75053 5.64987 2.92434 5.47943 3.00339L5.46277 3.01071C4.96574 3.21828 4.57754 3.63287 4.40474 4.14583H19.6758C19.6849 4.08518 19.6896 4.02301 19.6896 3.95961ZM0.9375 14.0009H23.0625V12.6144H0.9375V14.0009ZM14.1511 9.51823C14.1511 8.32479 13.1868 7.3596 12 7.3596C10.8132 7.3596 9.84889 8.32479 9.84888 9.51823C9.84888 10.7117 10.8132 11.6769 12 11.6769C13.1868 11.6769 14.1511 10.7117 14.1511 9.51823ZM15.0886 9.51823C15.0886 10.3574 14.7554 11.119 14.2141 11.6769H21.8987L20.1874 5.08333H3.81258L2.10132 11.6769H9.78589C9.24457 11.119 8.91138 10.3574 8.91138 9.51823C8.91139 7.80956 10.2929 6.4221 12 6.4221C13.7071 6.4221 15.0886 7.80956 15.0886 9.51823ZM20.6271 3.95961C20.6271 4.02231 20.6243 4.08442 20.619 4.14583H21.0761L21.1003 4.14642C21.3479 4.15898 21.5449 4.36379 21.5449 4.61458C21.5449 4.84684 21.3759 5.0395 21.1542 5.07669L22.8672 11.6769H23.5312C23.7901 11.6769 24 11.8868 24 12.1457V14.4696C24 14.7285 23.7901 14.9384 23.5312 14.9384H0.46875C0.209867 14.9384 0 14.7285 0 14.4696V12.1457L0.000595093 12.1215C0.0131408 11.8739 0.217951 11.6769 0.46875 11.6769H1.13278L2.84573 5.07669C2.62406 5.03948 2.45513 4.84682 2.45512 4.61458C2.45512 4.3557 2.66499 4.14583 2.92387 4.14583H3.43364C3.60826 3.34172 4.12558 2.6663 4.8246 2.27957C4.94182 1.17315 5.87811 0.311188 7.01564 0.311188C7.40775 0.311188 7.7765 0.414024 8.09578 0.593857C8.48183 0.343645 8.94256 0.198029 9.43661 0.198029C10.1178 0.198034 10.734 0.474562 11.1799 0.91983C11.399 0.833956 11.6374 0.786804 11.8862 0.786804C12.2273 0.786806 12.5481 0.875409 12.8266 1.03038C13.3732 0.399873 14.1805 0 15.0818 0C16.3332 1.76056e-06 17.4035 0.77001 17.8469 1.86163C18.0383 1.80643 18.2404 1.77686 18.4492 1.77686C19.6533 1.77686 20.6271 2.75535 20.6271 3.95961Z" fill="black"/>
</svg>
