<svg width="15" height="24" viewBox="0 0 15 24" fill="none" xmlns="http://www.w3.org/2000/svg">
<path d="M10.3125 17.2031C10.3125 16.736 10.0392 16.332 9.64165 16.1436H9.6416C9.20687 15.9377 8.8878 15.5707 8.71802 15.1427V15.1427C8.48844 14.564 7.9242 14.1562 7.26562 14.1562C6.60705 14.1562 6.04281 14.564 5.81323 15.1427C5.64349 15.5707 5.32442 15.9377 4.88969 16.1436H4.88965C4.49206 16.332 4.21875 16.736 4.21875 17.2031C4.21875 17.8503 4.74341 18.375 5.39062 18.375H9.14062C9.78784 18.375 10.3125 17.8503 10.3125 17.2031ZM11.25 17.2031C11.25 18.3681 10.3056 19.3125 9.14062 19.3125H5.39062C4.22565 19.3125 3.28125 18.3681 3.28125 17.2031C3.28125 16.3602 3.77574 15.6339 4.48833 15.2964L4.50714 15.2872C4.70026 15.1896 4.85461 15.0168 4.94174 14.7971L4.94179 14.797L4.95937 14.7539C5.33641 13.8531 6.22612 13.2188 7.26562 13.2188C8.32163 13.2188 9.22307 13.8734 9.58946 14.797L9.59811 14.8181C9.6896 15.0348 9.84737 15.2037 10.043 15.2964L10.0762 15.3125C10.7708 15.6566 11.25 16.3733 11.25 17.2031Z" fill="black"/>
<path d="M7.73438 10.6406C7.73438 10.1493 7.43231 9.9375 7.26562 9.9375C7.09894 9.9375 6.79688 10.1493 6.79688 10.6406C6.79688 11.132 7.09894 11.3438 7.26562 11.3438C7.43231 11.3438 7.73438 11.132 7.73438 10.6406ZM8.67188 10.6406C8.67188 11.4437 8.13448 12.2812 7.26562 12.2812C6.39677 12.2812 5.85938 11.4437 5.85938 10.6406C5.85938 9.83755 6.39677 9 7.26562 9C8.13448 9 8.67188 9.83755 8.67188 10.6406Z" fill="black"/>
<path d="M9.49156 11.4155C9.88125 10.7133 10.7576 10.2416 11.5173 10.6633C12.2651 11.0783 12.3383 12.0471 11.9687 12.7471L11.9508 12.7802C11.5611 13.4824 10.6848 13.954 9.92506 13.5324V13.5323C9.16539 13.1107 9.10187 12.1177 9.49156 11.4155ZM11.0623 11.483C10.9166 11.4022 10.5497 11.4408 10.3113 11.8704C10.0803 12.2866 10.2245 12.6109 10.3663 12.7043L10.38 12.7126V12.7126L10.3943 12.7199C10.5486 12.7907 10.9001 12.7414 11.131 12.3253L11.1419 12.3052C11.3644 11.8853 11.2058 11.5627 11.0623 11.483Z" fill="black"/>
<path d="M3.04965 10.6442C3.80093 10.2564 4.65612 10.7242 5.03969 11.4155H5.03964C5.42934 12.1177 5.36581 13.1107 4.60609 13.5323L4.60614 13.5323C3.8583 13.9474 2.99745 13.4969 2.59903 12.8129L2.5804 12.7801C2.19076 12.0779 2.25424 11.0849 3.01399 10.6633L3.04965 10.6442ZM4.21992 11.8703C3.98154 11.4407 3.61464 11.4022 3.46892 11.483H3.46887C3.3231 11.5639 3.16178 11.8956 3.40016 12.3253L3.41142 12.3451C3.65 12.7561 4.00776 12.7922 4.15121 12.7126L4.15126 12.7126L4.16495 12.7043C4.30666 12.6109 4.45089 12.2866 4.21992 11.8704V11.8703Z" fill="black"/>
<path d="M13.5938 10.4766C13.5938 8.62556 12.0932 7.125 10.2422 7.125H4.28906C2.43801 7.125 0.9375 8.62555 0.9375 10.4766V22.125C0.9375 22.6427 1.35726 23.0625 1.875 23.0625H12.6562C13.174 23.0625 13.5938 22.6427 13.5938 22.125V10.4766ZM14.5312 22.125C14.5312 23.1605 13.6918 24 12.6562 24H1.875C0.839491 24 0 23.1605 0 22.125V10.4766C0 8.10779 1.92024 6.1875 4.28906 6.1875H10.2422C12.611 6.1875 14.5312 8.10779 14.5312 10.4766V22.125Z" fill="black"/>
<path d="M9.375 4.54688C9.375 4.15856 9.06019 3.84375 8.67188 3.84375H5.85938C5.47106 3.84375 5.15625 4.15856 5.15625 4.54688V6.1875H9.375V4.54688ZM10.3125 6.65625C10.3125 6.91513 10.1026 7.125 9.84375 7.125H4.6875C4.42862 7.125 4.21875 6.91513 4.21875 6.65625V4.54688C4.21875 3.64079 4.95329 2.90625 5.85938 2.90625H8.67188C9.57796 2.90625 10.3125 3.64079 10.3125 4.54688V6.65625Z" fill="black"/>
<path d="M8.4375 0L8.46162 0.000595093C8.7093 0.0131505 8.90625 0.217957 8.90625 0.46875V3.375C8.90625 3.63388 8.69638 3.84375 8.4375 3.84375H6.09375C5.83487 3.84375 5.625 3.63388 5.625 3.375V0.46875L5.6256 0.444626C5.63815 0.196953 5.84296 0 6.09375 0H8.4375ZM6.5625 2.90625H7.96875V0.9375H6.5625V2.90625Z" fill="black"/>
<path d="M9.84376 0C10.1026 0 10.3125 0.209867 10.3125 0.46875C10.3125 0.727634 10.1026 0.9375 9.84376 0.9375H3.94419L2.44085 2.44084C2.25779 2.6239 1.96098 2.6239 1.77792 2.44084C1.59486 2.25778 1.59486 1.96097 1.77792 1.77791L3.41854 0.137283L3.43539 0.121262C3.52138 0.0434007 3.63346 0 3.75001 0H9.84376Z" fill="black"/>
<path d="M14.0625 20.7188C14.3214 20.7188 14.5312 20.9286 14.5312 21.1875C14.5312 21.4464 14.3214 21.6562 14.0625 21.6562H0.46875C0.209867 21.6562 0 21.4464 0 21.1875C0 20.9286 0.209867 20.7188 0.46875 20.7188H14.0625Z" fill="black"/>
</svg>
