<svg width="24" height="24" viewBox="0 0 24 24" fill="none" xmlns="http://www.w3.org/2000/svg">
<path d="M23.5681 4.21761C23.8784 3.73347 24.0264 3.17192 23.9961 2.59367C23.9237 1.21381 22.7862 0.0762643 21.4063 0.00393517C19.9595 -0.0719234 18.7821 0.964261 18.5587 2.26995H5.44127C5.21751 0.962096 4.03752 -0.0724881 2.59366 0.00398223C1.21381 0.0762643 0.0762613 1.21381 0.00388511 2.59362C-0.0264677 3.17183 0.121485 3.73338 0.431789 4.21761C0.7452 4.70665 0.7452 5.31427 0.431789 5.80335C0.121532 6.28749 -0.0264207 6.84899 0.00388511 7.4272C0.0774378 8.83072 1.26572 10.0208 2.7426 10.0208C4.10519 10.0208 5.22288 9.02719 5.44127 7.75092H18.5587C18.7812 9.05115 19.9548 10.093 21.4063 10.0169C22.7862 9.9446 23.9237 8.80705 23.9961 7.4272C24.0264 6.84894 23.8784 6.28739 23.5682 5.80335C23.2548 5.31427 23.2548 4.70665 23.5681 4.21761ZM22.7757 6.31116C22.9791 6.62852 23.0762 6.99741 23.0562 7.37793C23.0087 8.2832 22.2624 9.02959 21.3571 9.07708C20.3209 9.13105 19.4601 8.31105 19.4601 7.28033C19.4601 7.02042 19.2495 6.80974 18.9896 6.80974H5.01041C4.7505 6.80974 4.53982 7.02042 4.53982 7.28033C4.53982 8.30668 3.68283 9.13181 2.64293 9.07708C1.73762 9.02959 0.991222 8.2832 0.943787 7.37793C0.923834 6.99741 1.02082 6.62852 1.22421 6.31111C1.73837 5.50881 1.73837 4.51201 1.22421 3.70976C1.02078 3.3923 0.923834 3.02341 0.943787 2.64294C0.991269 1.73758 1.73762 0.991225 2.64293 0.94379C3.68171 0.888967 4.53982 1.71287 4.53982 2.74054C4.53982 3.00039 4.7505 3.21112 5.01041 3.21112H18.9896C19.2495 3.21112 19.4601 3.00044 19.4601 2.74054C19.4601 1.71663 20.3143 0.889296 21.3571 0.94379C22.2624 0.991225 23.0087 1.73758 23.0562 2.64294C23.0762 3.02345 22.9791 3.39235 22.7757 3.70976C22.2616 4.51201 22.2616 5.50881 22.7757 6.31116Z" fill="black"/>
<path d="M12.0001 8.94141C7.82881 8.94141 4.4707 12.3378 4.4707 16.4708C4.4707 20.6098 7.83549 24.0002 12.0001 24.0002C16.1715 24.0002 19.5295 20.6036 19.5295 16.4708C19.5295 12.3308 16.1635 8.94141 12.0001 8.94141ZM7.17865 11.9861C9.53092 14.5067 9.53247 18.4333 7.17865 20.9555C4.82167 18.4232 4.82355 14.5164 7.17865 11.9861ZM7.86645 21.5967C10.5385 18.7178 10.5671 14.2545 7.86645 11.3449C10.2784 9.39599 13.7178 9.39284 16.1338 11.3449C13.4617 14.2237 13.4331 18.6871 16.1338 21.5967C13.7217 23.5456 10.2824 23.5488 7.86645 21.5967ZM16.8215 20.9555C14.4693 18.435 14.4677 14.5083 16.8215 11.9861C19.1785 14.5184 19.1767 18.4252 16.8215 20.9555Z" fill="black"/>
</svg>
