<?xml version="1.0" encoding="utf-8"?>
<!-- Generator: Adobe Illustrator 27.2.0, SVG Export Plug-In . SVG Version: 6.00 Build 0)  -->
<svg version="1.1" id="Слой_1" xmlns="http://www.w3.org/2000/svg" xmlns:xlink="http://www.w3.org/1999/xlink" x="0px" y="0px"
	 viewBox="0 0 21 20" style="enable-background:new 0 0 21 20;" xml:space="preserve">
<path d="M16.9,19.8H4.1c-1,0-1.9-0.8-1.9-1.9V9.6l-1,1c-0.3,0.3-0.8,0.3-1.1,0s-0.3-0.8,0-1.1l2.2-2.2c0,0,0,0,0,0l6.7-6.7
	c0.7-0.7,1.9-0.7,2.7,0l9,9c0.3,0.3,0.3,0.8,0,1.1s-0.8,0.3-1.1,0l-1-1v8.3C18.8,18.9,17.9,19.8,16.9,19.8z M15,18.3h1.9
	c0.2,0,0.4-0.2,0.4-0.4V8.1l-6.5-6.5c-0.1-0.1-0.4-0.1-0.5,0L3.8,8.1v9.8c0,0.2,0.2,0.4,0.4,0.4h3.4v-4.1c0-1,0.8-1.9,1.9-1.9h2.2
	c1,0,1.9,0.8,1.9,1.9v4.1H15z M9,18.3h3v-4.1c0-0.2-0.2-0.4-0.4-0.4H9.4C9.2,13.8,9,14,9,14.2V18.3z"/>
</svg>
