<?xml version="1.0" encoding="utf-8"?>
<!-- Generator: Adobe Illustrator 27.2.0, SVG Export Plug-In . SVG Version: 6.00 Build 0)  -->
<svg version="1.1" id="Слой_1" xmlns="http://www.w3.org/2000/svg" xmlns:xlink="http://www.w3.org/1999/xlink" x="0px" y="0px"
	 viewBox="0 0 56.6 22.5" style="enable-background:new 0 0 56.6 22.5;" xml:space="preserve">
<path d="M51.8,17.4h4v1.5h-4V17.4z M52,20.8h4.6v1.6h-6.5V14h6.3v1.6H52V20.8z"/>
<path d="M40.4,22.4V14H42l5,6h-0.8v-6h1.9v8.4h-1.6l-5-6h0.8v6H40.4z"/>
<path d="M36.4,22.4V14h1.9v8.4H36.4z"/>
<path d="M26.1,22.4l3.7-8.4h1.9l3.8,8.4h-2L30.4,15h0.8l-3.1,7.4H26.1z M28,20.6l0.5-1.5h4.3l0.5,1.5H28z"/>
<path d="M18.4,22.4V14H22c0.8,0,1.4,0.1,1.9,0.4c0.5,0.2,1,0.6,1.3,1c0.3,0.5,0.4,1,0.4,1.6c0,0.6-0.1,1.2-0.4,1.6
	c-0.3,0.4-0.7,0.8-1.3,1c-0.5,0.2-1.2,0.4-1.9,0.4h-2.6l0.9-0.9v3.2H18.4z M23.8,22.4l-2.1-3h2.1l2.1,3H23.8z M20.4,19.4l-0.9-0.9
	h2.4c0.6,0,1-0.1,1.3-0.4c0.3-0.3,0.4-0.6,0.4-1.1c0-0.5-0.1-0.8-0.4-1.1s-0.7-0.4-1.3-0.4h-2.4l0.9-0.9V19.4z"/>
<path d="M11.3,20.5l-0.1-2.2l4-4.2h2.2l-3.6,3.9l-1.1,1.2L11.3,20.5z M9.5,22.4V14h1.9v8.4H9.5z M15.3,22.4l-3-3.7l1.3-1.4l4,5H15.3
	z"/>
<path d="M3.8,22.5c-1.2,0-2.1-0.3-2.8-1s-1-1.6-1-2.8V14h1.9v4.6c0,0.8,0.2,1.4,0.5,1.7c0.3,0.4,0.8,0.5,1.4,0.5s1.1-0.2,1.4-0.5
	c0.3-0.4,0.5-0.9,0.5-1.7V14h1.9v4.7c0,1.2-0.3,2.2-1,2.8S5,22.5,3.8,22.5z"/>
<path d="M46,8.4V0h1.6l5,6h-0.8V0h1.9v8.4h-1.6l-5-6h0.8v6H46z"/>
<path d="M42.1,8.4V0H44v8.4H42.1z"/>
<path d="M32.4,3.4h4v1.5h-4V3.4z M32.6,6.8h4.6v1.6h-6.5V0H37v1.6h-4.4V6.8z"/>
<path d="M20.7,8.4V0h3.8c0.9,0,1.7,0.2,2.4,0.5c0.7,0.3,1.2,0.8,1.6,1.5s0.6,1.4,0.6,2.2c0,0.8-0.2,1.6-0.6,2.2
	c-0.4,0.6-0.9,1.1-1.6,1.5c-0.7,0.3-1.5,0.5-2.4,0.5H20.7z M22.7,6.8h1.8c0.6,0,1-0.1,1.5-0.3c0.4-0.2,0.7-0.5,1-0.9
	c0.2-0.4,0.3-0.9,0.3-1.4c0-0.5-0.1-1-0.3-1.4c-0.2-0.4-0.5-0.7-1-0.9c-0.4-0.2-0.9-0.3-1.5-0.3h-1.8V6.8z"/>
<path d="M10.4,8.4L14.2,0h1.9l3.8,8.4h-2L14.7,1h0.8l-3.1,7.4H10.4z M12.3,6.6l0.5-1.5h4.3l0.5,1.5H12.3z"/>
<path d="M0.1,8.4V0h1.6l3.6,5.9H4.4L7.9,0h1.6l0,8.4H7.7l0-5.6H8L5.2,7.5H4.4L1.5,2.8h0.4v5.6H0.1z"/>
</svg>
