<?xml version="1.0" encoding="utf-8"?>
<!-- Generator: Adobe Illustrator 27.2.0, SVG Export Plug-In . SVG Version: 6.00 Build 0)  -->
<svg version="1.1" id="Слой_1" xmlns="http://www.w3.org/2000/svg" xmlns:xlink="http://www.w3.org/1999/xlink" x="0px" y="0px"
	 viewBox="0 0 27.5 25.5" style="enable-background:new 0 0 27.5 25.5;" xml:space="preserve">
<path d="M6.8,25.5c-0.1,0-0.2,0-0.3-0.1C6.2,25.3,6,25.1,6,24.7v-5.6C5.4,19.1,4.9,19,4.3,19C1.9,18.6,0,16.5,0,13.9V5.6
	C0,3,1.9,0.9,4.3,0.5c5.5-0.7,11.3-0.7,16.8,0c2.5,0.3,4.3,2.5,4.3,5.1v2c1.2,0.6,2,1.9,2,3.3v5.7c0,1.9-1.4,3.5-3.3,3.7
	c-0.2,0-0.4,0-0.7,0.1v3.4c0,0.3-0.2,0.6-0.5,0.7c-0.3,0.1-0.6,0.1-0.8-0.2l-3.8-3.8c-1.7,0-3.4-0.1-5.1-0.2c-0.3,0-0.6-0.1-0.9-0.2
	l-5.2,5.2C7.1,25.4,6.9,25.5,6.8,25.5z M12.8,1.5C10,1.5,7.2,1.7,4.5,2c-1.7,0.2-3,1.8-3,3.6v8.3c0,1.8,1.3,3.3,3,3.6
	c0.8,0.1,1.5,0.2,2.3,0.3c0.4,0,0.7,0.4,0.7,0.7v4.5l3.6-3.6c-0.7-0.7-1.1-1.7-1.1-2.7v-5.7c0-1.9,1.4-3.5,3.3-3.7
	c3.5-0.3,7.2-0.3,10.7,0V5.6c0-1.8-1.3-3.3-3-3.6C18.3,1.7,15.5,1.5,12.8,1.5z M12.7,18.6c0.2,0.1,0.5,0.2,0.8,0.2
	c1.7,0.1,3.5,0.2,5.3,0.2c0.2,0,0.4,0.1,0.5,0.2l2.7,2.7v-2.3c0-0.4,0.3-0.7,0.7-0.7c0.4,0,0.9-0.1,1.3-0.1c1.1-0.1,2-1,2-2.2v-5.7
	c0-1-0.6-1.8-1.5-2.1c0,0,0,0,0,0c-0.1,0-0.3-0.1-0.5-0.1c-3.5-0.3-7.1-0.3-10.6,0c-1.1,0.1-1.9,1-1.9,2.2v5.7
	C11.5,17.4,11.9,18.2,12.7,18.6C12.6,18.5,12.6,18.5,12.7,18.6z"/>
</svg>
