<?xml version="1.0" encoding="utf-8"?>
<!-- Generator: Adobe Illustrator 27.2.0, SVG Export Plug-In . SVG Version: 6.00 Build 0)  -->
<svg version="1.1" id="Слой_1" xmlns="http://www.w3.org/2000/svg" xmlns:xlink="http://www.w3.org/1999/xlink" x="0px" y="0px"
	 viewBox="0 0 18.3 24" style="enable-background:new 0 0 18.3 24;" xml:space="preserve">
<path d="M0,9.6c0-1.7,0.9-3.2,2.3-4.1V4.5C2.3,4.2,2.6,4,2.8,4s0.5,0.2,0.5,0.5v1.4l0,0C3.3,6,3.2,6.2,3,6.3
	C1.8,6.9,0.9,8.1,0.9,9.6v11.6h10.6l0,0c0.2,0,0.4,0.2,0.4,0.5c0,0.3-0.2,0.5-0.4,0.5l0,0h-11c-0.3,0-0.5-0.2-0.5-0.5V9.6z
	 M14.1,16.9V9.6c0-1.5-0.8-2.7-2.1-3.4c-0.2-0.1-0.3-0.2-0.3-0.4V4.5c0-0.3,0.2-0.5,0.5-0.5c0.3,0,0.5,0.2,0.5,0.5v1.1
	C14.1,6.4,15,7.9,15,9.6v7.2c0,0.3-0.2,0.5-0.5,0.5C14.3,17.3,14.1,17.1,14.1,16.9z"/>
<path d="M13.1,0L13.1,0c0.3,0,0.5,0.2,0.5,0.5v3.8c0,0.3-0.2,0.5-0.5,0.5H1.9c-0.3,0-0.5-0.2-0.5-0.5V0.5l0,0C1.4,0.2,1.6,0,1.9,0
	H13.1z M2.3,3.8h10.3V0.9H2.3V3.8z"/>
<path d="M8,9.8c0-0.3-0.1-0.5-0.2-0.6C7.7,9,7.6,9,7.5,9C7.4,9,7.3,9,7.2,9.1C7.1,9.3,7,9.5,7,9.8c0,0.3,0.1,0.5,0.2,0.6
	c0.1,0.1,0.2,0.2,0.3,0.2c0.1,0,0.2,0,0.3-0.2C7.9,10.3,8,10.1,8,9.8z M8.9,9.8c0,0.5-0.1,0.9-0.4,1.2c-0.2,0.3-0.6,0.6-1.1,0.6
	c-0.5,0-0.8-0.2-1.1-0.6c-0.2-0.3-0.4-0.8-0.4-1.2c0-0.5,0.1-0.9,0.4-1.2C6.7,8.3,7,8,7.5,8c0.5,0,0.8,0.2,1.1,0.6
	C8.8,8.9,8.9,9.3,8.9,9.8z"/>
<path d="M4.4,11.4c-0.1-0.3-0.2-0.5-0.4-0.6c-0.1-0.1-0.3-0.1-0.4-0.1S3.5,10.8,3.5,11c-0.1,0.2-0.1,0.4,0,0.7
	c0.1,0.3,0.2,0.5,0.4,0.6c0.1,0.1,0.3,0.1,0.4,0.1s0.2-0.1,0.3-0.3C4.5,11.9,4.5,11.6,4.4,11.4z M5.3,11.1c0.1,0.4,0.1,0.9-0.1,1.3
	c-0.2,0.4-0.4,0.7-0.9,0.8c-0.4,0.1-0.9,0-1.2-0.3c-0.3-0.3-0.6-0.6-0.7-1.1c-0.1-0.4-0.1-0.9,0.1-1.3C2.7,10.2,3,9.9,3.5,9.8
	c0.4-0.1,0.9,0,1.2,0.3C5,10.3,5.2,10.7,5.3,11.1z"/>
<path d="M11.3,10.7c-0.1,0-0.2,0-0.4,0.1c-0.1,0.1-0.3,0.3-0.4,0.6c-0.1,0.3,0,0.5,0,0.7c0.1,0.2,0.2,0.2,0.3,0.3
	c0.1,0,0.2,0,0.4-0.1c0.1-0.1,0.3-0.3,0.4-0.6c0.1-0.3,0-0.5,0-0.7C11.5,10.8,11.4,10.7,11.3,10.7z M11.5,9.8
	c0.4,0.1,0.7,0.4,0.9,0.8c0.2,0.4,0.2,0.8,0.1,1.3c-0.1,0.4-0.4,0.8-0.7,1.1c-0.3,0.3-0.7,0.4-1.2,0.3c-0.4-0.1-0.7-0.4-0.9-0.8
	c-0.2-0.4-0.2-0.8-0.1-1.3c0.1-0.4,0.4-0.8,0.7-1.1C10.7,9.8,11.1,9.7,11.5,9.8z"/>
<path d="M10.3,16.3c0-0.4-0.2-0.7-0.6-0.9l0,0h0c-0.4-0.2-0.7-0.5-0.8-0.8l0,0c-0.2-0.5-0.7-0.8-1.3-0.8c-0.6,0-1.1,0.3-1.3,0.8l0,0
	c-0.1,0.4-0.4,0.7-0.8,0.8h0C5.2,15.6,5,15.9,5,16.3c0,0.5,0.5,1,1,1h3.3C9.9,17.2,10.3,16.8,10.3,16.3z M11.1,16.3
	c0,1-0.8,1.7-1.9,1.7H6c-1,0-1.9-0.8-1.9-1.7c0-0.7,0.4-1.3,1-1.6l0,0c0.2-0.1,0.3-0.2,0.4-0.4c0.3-0.8,1.1-1.3,2-1.3
	c0.9,0,1.7,0.5,2,1.3l0,0c0.1,0.2,0.2,0.3,0.4,0.4l0,0C10.7,15,11.1,15.6,11.1,16.3z"/>
<path d="M16.5,18.3c-1.1-1.1-2.9-1.1-4,0c-1.1,1.1-1.1,2.9,0,4c1.1,1.1,2.9,1.1,4,0C17.6,21.1,17.6,19.4,16.5,18.3z M17.2,17.6
	c1.5,1.5,1.5,3.8,0,5.3c-1.5,1.5-3.8,1.5-5.3,0c-1.5-1.5-1.5-3.8,0-5.3C13.3,16.1,15.7,16.1,17.2,17.6z"/>
<path d="M14.1,21.4v-2.3c0-0.3,0.2-0.5,0.5-0.5c0.3,0,0.5,0.2,0.5,0.5v2.3c0,0.3-0.2,0.5-0.5,0.5C14.3,21.9,14.1,21.7,14.1,21.4z"/>
<path d="M15.7,19.8L15.7,19.8c0.3,0,0.5,0.2,0.5,0.5s-0.2,0.5-0.4,0.5l0,0h-2.3c-0.3,0-0.5-0.2-0.5-0.5s0.2-0.5,0.5-0.5H15.7z"/>
</svg>
