<?xml version="1.0" encoding="utf-8"?>
<!-- Generator: Adobe Illustrator 27.2.0, SVG Export Plug-In . SVG Version: 6.00 Build 0)  -->
<svg version="1.1" id="Слой_1" xmlns="http://www.w3.org/2000/svg" xmlns:xlink="http://www.w3.org/1999/xlink" x="0px" y="0px"
	 viewBox="0 0 24 22.1" style="enable-background:new 0 0 24 22.1;" xml:space="preserve">
<path d="M23.3,4.3c-1.5-2.3-4.9-2.5-6.5-2.4c-0.4-0.3-0.8-0.6-1.2-0.8c-2.2-1.4-5.1-1.4-7.3,0C7.9,1.3,7.5,1.6,7.2,1.9
	c-1.6-0.1-5,0.1-6.5,2.4c-1.3,2-0.7,5.1,1.5,9.1c0.1,0.2,0.3,0.4,0.4,0.4c0.3,0.1,0.5,0.1,0.8,0c0.5-0.2,0.9-0.8,1.3-1.9
	c0.2,0.6,0.5,1.3,0.8,2c0,0.1,0,0.1-0.1,0.2c-0.3,0.7-0.9,2.3-0.2,3.7c0.5,1.1,1.6,1.9,3.2,2.4c0.7,1.2,2,2,3.5,2
	c1.5,0,2.8-0.8,3.5-2c1.6-0.5,2.7-1.4,3.2-2.4c0.7-1.5,0.1-3-0.2-3.7c0-0.1,0-0.1-0.1-0.2c0.3-0.7,0.6-1.3,0.8-2
	c0.3,0.8,0.9,2,1.8,2c0.1,0,0.3,0,0.4-0.1c0.2-0.1,0.3-0.2,0.4-0.4C24.1,9.3,24.6,6.2,23.3,4.3z M3,12.9C3,12.9,3,12.9,3,12.9
	c-1.3-2.3-2.9-6-1.6-8.2c1-1.6,3.2-1.9,4.7-2c-1.9,2.1-2.4,4.7-1.8,7.5C3.7,12.5,3.1,12.9,3,12.9z M9.7,20.2c0.7-0.1,1.4-0.5,2-1
	L12,19l0.3,0.2c0.6,0.5,1.3,0.8,2,1C13.1,21.5,10.9,21.5,9.7,20.2z M12.4,14.5c-0.1,0.2-0.3,0.2-0.4,0.2s-0.3,0-0.4-0.2
	c0-0.1,0,0-0.9-1c-0.1-0.2,0-0.3,0-0.4c0-0.1,0.1-0.2,0.4-0.2h1.8c0.2,0,0.3,0.1,0.4,0.2c0,0.1,0.1,0.2,0,0.4
	C12.4,14.5,12.4,14.4,12.4,14.5z M17.5,13.9c0,0.1,0.1,0.3,0.2,0.4c0.3,0.7,0.8,1.9,0.2,3c-0.4,0.9-1.4,1.5-2.9,2
	c-0.8,0-1.5-0.3-2.1-0.8l-0.4-0.4v-2.6c0.3-0.1,0.5-0.3,0.7-0.6c0.9-1,0.9-1,0.9-1.1c0.5-0.9-0.1-2-1.2-2h-1.8c-1.1,0-1.7,1.1-1.2,2
	c0,0.1,0,0,0.9,1.1c0.2,0.3,0.4,0.5,0.7,0.6v2.6l-0.4,0.4C10.5,19,9.8,19.3,9,19.3c-1.5-0.5-2.5-1.1-2.9-2c-0.5-1.1,0-2.3,0.2-3
	c0.1-0.2,0.1-0.3,0.2-0.4c0-0.1,0-0.2,0-0.3C3.3,7,6,3.6,8.8,1.8c1.9-1.2,4.4-1.2,6.3,0C18,3.6,20.7,7,17.5,13.6
	C17.5,13.7,17.4,13.8,17.5,13.9z M21,12.9C21,12.9,21,12.9,21,12.9c-0.1,0-0.7-0.3-1.3-2.6c0.6-2.8,0.1-5.4-1.8-7.5
	c1.5,0,3.7,0.4,4.7,2C23.9,7,22.3,10.6,21,12.9z"/>
<path d="M11,7.5c-1.3-0.6-2.9-0.6-4.2,0C6.6,7.7,6.5,7.9,6.6,8.2C6.8,8.4,7,8.5,7.3,8.4c1-0.5,2.3-0.5,3.3,0c0.1,0,0.1,0,0.2,0
	c0.2,0,0.3-0.1,0.4-0.3C11.4,7.9,11.3,7.7,11,7.5z"/>
<path d="M17.2,7.5c-1.3-0.6-2.9-0.6-4.2,0c-0.2,0.1-0.3,0.4-0.2,0.6c0.1,0.2,0.4,0.3,0.6,0.2c1-0.5,2.3-0.5,3.3,0
	c0.2,0.1,0.5,0,0.6-0.2C17.5,7.9,17.4,7.7,17.2,7.5z"/>
</svg>
