<?xml version="1.0" encoding="utf-8"?>
<!-- Generator: Adobe Illustrator 27.2.0, SVG Export Plug-In . SVG Version: 6.00 Build 0)  -->
<svg version="1.1" id="Слой_1" xmlns="http://www.w3.org/2000/svg" xmlns:xlink="http://www.w3.org/1999/xlink" x="0px" y="0px"
	 viewBox="0 0 21.6 24" style="enable-background:new 0 0 21.6 24;" xml:space="preserve">
<path d="M18.3,0L18.3,0c0.3,0,0.5,0.2,0.5,0.5v23.1c0,0.3-0.2,0.5-0.5,0.5H2.3C1.1,24,0,23,0,21.7l0,0V2.3C0,1.1,1.1,0,2.3,0H18.3z
	 M0.9,21.7c0,0.8,0.6,1.4,1.4,1.4h15.5v-2.8H2.3C1.6,20.2,0.9,20.9,0.9,21.7L0.9,21.7z M0.9,19.8c0.4-0.3,0.9-0.5,1.4-0.5h15.5V0.9
	H2.3c-0.8,0-1.4,0.6-1.4,1.4V19.8z"/>
<path d="M1.9,19.5V0.7c0-0.3,0.2-0.5,0.5-0.5s0.5,0.2,0.5,0.5v18.8c0,0.3-0.2,0.5-0.5,0.5S1.9,19.8,1.9,19.5z"/>
<path d="M21.1,3.8c0.1,0,0.3,0.1,0.4,0.2c0.1,0.1,0.1,0.3,0.1,0.4l0,0l-0.4,1.5l0.4,1.5c0,0.1,0,0.3-0.1,0.4C21.4,7.9,21.2,8,21.1,8
	h-2.6C18.3,8,18,7.8,18,7.5c0-0.3,0.2-0.5,0.5-0.5h2l-0.3-1c0-0.1,0-0.2,0-0.3l0.3-1h-2c-0.3,0-0.5-0.2-0.5-0.5
	c0-0.3,0.2-0.5,0.5-0.5H21.1z"/>
<path d="M15.5,10.1c0-2.8-2.3-5.2-5.2-5.2c-2.8,0-5.2,2.3-5.2,5.2c0,2.8,2.3,5.2,5.2,5.2C13.2,15.3,15.5,13,15.5,10.1z M16.4,10.1
	c0,3.4-2.7,6.1-6.1,6.1c-3.4,0-6.1-2.7-6.1-6.1C4.2,6.8,6.9,4,10.3,4C13.7,4,16.4,6.8,16.4,10.1z"/>
<path d="M9,6.8c0.8-0.8,2-0.8,2.8,0c0.3,0.3,0.4,0.7,0.5,1c0,0.3,0.1,0.3,0.1,0.4c0,0,0.1,0.1,0.4,0.1c0.3,0,0.6,0.1,1,0.5
	c0.8,0.8,0.8,2,0,2.8c-0.4,0.4-0.9,0.6-1.5,0.6l-0.1,0c-0.6,0-0.9,0-1.1,0.1c-0.2,0.1-0.3,0.2-0.5,0.4l-0.1,0.1l-2.7,2.7
	c-0.2,0.2-0.5,0.2-0.7,0c-0.2-0.2-0.2-0.5,0-0.7l2.7-2.7l0.1-0.1c0.2-0.2,0.5-0.4,0.8-0.6c0.4-0.2,0.9-0.2,1.5-0.2
	c0.3,0,0.6-0.1,0.8-0.3c0.4-0.4,0.4-1,0-1.4c-0.1-0.1-0.2-0.2-0.5-0.2c-0.2,0-0.6-0.1-0.9-0.4c-0.3-0.3-0.3-0.7-0.4-0.9
	c0-0.2-0.1-0.3-0.2-0.5c-0.4-0.4-1-0.4-1.4,0C9.5,7.6,9.4,7.9,9.4,8.2l0,0l0,0.1c0,0.6,0,1.1-0.2,1.5c-0.1,0.3-0.4,0.6-0.6,0.8
	l-0.1,0.1l-2.7,2.7l-0.7-0.7L7.9,10L8,9.9c0.2-0.2,0.3-0.3,0.4-0.5c0.1-0.2,0.1-0.5,0.1-1.1l0-0.1C8.5,7.7,8.6,7.2,9,6.8z M5.9,13.3
	c-0.2,0.2-0.5,0.2-0.7,0c-0.2-0.2-0.2-0.5,0-0.7L5.9,13.3z"/>
</svg>
