<?xml version="1.0" encoding="utf-8"?>
<!-- Generator: Adobe Illustrator 27.2.0, SVG Export Plug-In . SVG Version: 6.00 Build 0)  -->
<svg version="1.1" id="Слой_1" xmlns="http://www.w3.org/2000/svg" xmlns:xlink="http://www.w3.org/1999/xlink" x="0px" y="0px"
	 viewBox="0 0 24 24" style="enable-background:new 0 0 24 24;" xml:space="preserve">
<path d="M20.2,2.1c0-0.7-0.5-1.2-1.2-1.2H4.9c-0.7,0-1.2,0.5-1.2,1.2c0,0.7,0.5,1.2,1.2,1.2h14.1C19.7,3.3,20.2,2.8,20.2,2.1z
	 M21.2,2.1c0,1.2-0.9,2.1-2.1,2.1H4.9c-1.2,0-2.1-0.9-2.1-2.1C2.8,0.9,3.8,0,4.9,0h14.1C20.2,0,21.2,0.9,21.2,2.1z"/>
<path d="M17.5,7.1c1.3,0,2.1,0.2,2.8,0.5c0.6,0.2,1.1,0.5,2.1,0.5l0.1,0l0,0c0.2,0,0.4,0.2,0.4,0.5S22.7,9,22.5,9l0,0l-0.1,0
	c-1.1-0.1-1.7-0.4-2.3-0.6C19.4,8.2,18.7,8,17.5,8c-1.3,0-1.9,0.2-2.6,0.5C14.2,8.8,13.5,9,12,9c-1.5,0-2.2-0.3-2.9-0.5
	C8.4,8.2,7.8,8,6.5,8C5.3,8,4.6,8.2,4,8.4C3.4,8.7,2.7,8.9,1.6,9l0,0C1.3,9,1.1,8.8,1.1,8.6c0-0.3,0.2-0.5,0.4-0.5l0.1,0
	c1-0.1,1.5-0.3,2.1-0.5c0.7-0.3,1.4-0.5,2.8-0.5c1.5,0,2.2,0.3,2.9,0.5c0.7,0.2,1.3,0.5,2.6,0.5c1.3,0,1.9-0.2,2.6-0.5
	C15.3,7.3,16.1,7.1,17.5,7.1z"/>
<path d="M23.1,13.4c0-3.8-1.9-7.2-4.9-9.2H5.8c-3,2-4.9,5.4-4.9,9.2c0,4.1,2.3,7.8,5.7,9.7h10.8C20.8,21.2,23.1,17.6,23.1,13.4z
	 M24,13.4c0,4.5-2.5,8.5-6.2,10.5c-0.1,0-0.1,0.1-0.2,0.1H6.5c-0.1,0-0.2,0-0.2-0.1C2.5,21.9,0,18,0,13.4c0-4.2,2.2-7.9,5.4-10l0,0
	c0.1,0,0.2-0.1,0.2-0.1h12.6l0,0c0.1,0,0.2,0,0.2,0.1C21.8,5.5,24,9.2,24,13.4z"/>
<path d="M19,16c0-0.7-0.5-1.4-1.4-2c-0.9-0.6-2.2-0.9-3.7-0.9c-1.5,0-2.8,0.4-3.7,0.9c-0.9,0.6-1.4,1.3-1.4,2c0,0.7,0.5,1.4,1.4,2
	c0.9,0.6,2.2,0.9,3.7,0.9c1.5,0,2.8-0.4,3.7-0.9C18.5,17.4,19,16.7,19,16z M19.9,16c0,1.2-0.8,2.1-1.9,2.8c-1.1,0.7-2.6,1.1-4.2,1.1
	s-3.1-0.4-4.2-1.1c-1.1-0.7-1.9-1.6-1.9-2.8c0-1.2,0.8-2.1,1.9-2.8c1.1-0.7,2.6-1.1,4.2-1.1s3.1,0.4,4.2,1.1
	C19.1,13.9,19.9,14.8,19.9,16z"/>
<path d="M15,12.4c0.2-0.2,0.5-0.2,0.7,0c0.2,0.2,0.2,0.5,0,0.7c-1.6,1.6-1.8,4.1-0.6,5.9l0,0l0,0c0.1,0.2,0.1,0.5-0.1,0.6
	c-0.2,0.1-0.5,0.1-0.6-0.1l0,0l0-0.1C12.8,17.3,13.1,14.4,15,12.4z"/>
<path d="M17.1,15.5c0,0.3-0.2,0.5-0.5,0.5s-0.5-0.2-0.5-0.5s0.2-0.5,0.5-0.5S17.1,15.2,17.1,15.5z"/>
<path d="M12.3,10.4c1.3,0,2.5,0.9,2.8,2.1l0,0.1l0,0c0,0.2-0.1,0.5-0.4,0.5c-0.2,0.1-0.5-0.1-0.6-0.3l0,0l0,0
	c-0.2-0.8-1-1.4-1.9-1.4h-0.6l0.7,1.4l0,0c0.1,0.2,0,0.5-0.2,0.6c-0.2,0.1-0.5,0-0.6-0.2l0,0l-1-2c-0.1-0.1-0.1-0.3,0-0.5
	c0.1-0.1,0.2-0.2,0.4-0.2H12.3z"/>
<path d="M11.6,18.9c0.1-0.2,0.4-0.3,0.6-0.2c0.2,0.1,0.3,0.4,0.2,0.6l-0.7,1.4h0.6c0.9,0,1.7-0.6,1.9-1.5c0.1-0.3,0.3-0.4,0.6-0.3
	c0.3,0.1,0.4,0.3,0.3,0.6c-0.3,1.3-1.4,2.2-2.8,2.2H11c-0.2,0-0.3-0.1-0.4-0.2c-0.1-0.1-0.1-0.3,0-0.5L11.6,18.9L11.6,18.9z"/>
<path d="M6,13.2c1.6,0,2.8,1.3,2.8,2.8v0c0,0.3-0.2,0.5-0.5,0.5H6.9c-1.6,0-2.8-1.3-2.8-2.8v0l0,0c0-0.2,0.2-0.4,0.5-0.4H6z
	 M5.1,14.1c0.2,0.8,0.9,1.4,1.8,1.4h0.9c-0.2-0.8-0.9-1.4-1.8-1.4H5.1z"/>
<path d="M8.3,15.5L8.3,15.5c0.3,0,0.5,0.2,0.5,0.5v0l0,0c0,1.5-1.3,2.8-2.8,2.8H4.5c-0.3,0-0.5-0.2-0.5-0.5v0c0-1.6,1.3-2.8,2.8-2.8
	H8.3z M6.9,16.5c-0.9,0-1.6,0.6-1.8,1.4H6c0.9,0,1.6-0.6,1.8-1.4H6.9z"/>
</svg>
