<?xml version="1.0" encoding="utf-8"?>
<!-- Generator: Adobe Illustrator 27.2.0, SVG Export Plug-In . SVG Version: 6.00 Build 0)  -->
<svg version="1.1" id="Слой_1" xmlns="http://www.w3.org/2000/svg" xmlns:xlink="http://www.w3.org/1999/xlink" x="0px" y="0px"
	 viewBox="0 0 18.5 24" style="enable-background:new 0 0 18.5 24;" xml:space="preserve">
<path d="M13.8,0L13.8,0c0.3,0,0.5,0.2,0.5,0.4c0.1,1.6,1.4,2.8,2.9,2.8l0,0l0,0c0.2,0,0.4,0.2,0.4,0.4l0.8,10.2l0,0.1
	c0.2,3.4-1.7,6.6-4.7,8l-0.1,0L9.4,24C9.3,24,9.2,24,9,24L4.8,22c-3.1-1.4-5-4.7-4.8-8.1L0.8,3.6l0,0c0-0.2,0.2-0.4,0.5-0.4
	c1.5,0,2.8-1.2,2.9-2.8l0,0C4.2,0.2,4.4,0,4.6,0H13.8z M5,0.9c-0.3,1.7-1.7,3-3.3,3.2L1,13.9c-0.2,3.1,1.5,5.9,4.2,7.2h0l4,1.9
	l4-1.9h0l0.1,0c2.7-1.3,4.4-4.1,4.2-7.1l0-0.1l-0.7-9.8c-1.7-0.2-3-1.5-3.3-3.2H5z"/>
<path d="M12.3,14.3c0-0.5-0.3-0.9-0.7-1.1l0,0l0,0c-0.4-0.2-0.8-0.6-0.9-1h0c-0.2-0.6-0.8-1-1.5-1c-0.7,0-1.2,0.4-1.5,1h0
	c-0.2,0.4-0.5,0.8-0.9,1h0c-0.4,0.2-0.7,0.6-0.7,1.1c0,0.6,0.5,1.2,1.2,1.2h3.8C11.7,15.5,12.3,15,12.3,14.3z M13.2,14.3
	c0,1.2-0.9,2.1-2.1,2.1H7.4c-1.2,0-2.1-0.9-2.1-2.1c0-0.8,0.5-1.5,1.2-1.9l0,0c0.2-0.1,0.4-0.3,0.5-0.5c0.4-0.9,1.3-1.6,2.3-1.6
	c1.1,0,2,0.7,2.3,1.6l0,0c0.1,0.2,0.2,0.4,0.4,0.5l0,0C12.7,12.8,13.2,13.5,13.2,14.3z"/>
<path d="M9.7,7.8c0-0.5-0.3-0.7-0.5-0.7c-0.2,0-0.5,0.2-0.5,0.7c0,0.5,0.3,0.7,0.5,0.7C9.4,8.5,9.7,8.3,9.7,7.8z M10.6,7.8
	c0,0.8-0.5,1.6-1.4,1.6c-0.9,0-1.4-0.8-1.4-1.6c0-0.8,0.5-1.6,1.4-1.6C10.1,6.1,10.6,7,10.6,7.8z"/>
<path d="M11.5,8.5c0.4-0.7,1.3-1.2,2-0.8h0l0,0c0.7,0.4,0.8,1.4,0.4,2.1l0,0c-0.4,0.7-1.3,1.2-2,0.8l0,0
	C11.1,10.2,11.1,9.2,11.5,8.5L11.5,8.5z M13,8.6c-0.1-0.1-0.5,0-0.7,0.4l0,0c-0.2,0.4-0.1,0.7,0.1,0.8l0,0v0l0,0
	c0.2,0.1,0.5,0,0.7-0.4l0,0C13.3,9,13.2,8.7,13,8.6L13,8.6z"/>
<path d="M5,7.8c0.8-0.4,1.6,0.1,2,0.8h0c0.4,0.7,0.3,1.7-0.4,2.1h0c-0.8,0.4-1.6-0.1-2-0.8h0C4.1,9.2,4.2,8.2,5,7.8L5,7.8z M6.2,9
	C5.9,8.6,5.6,8.5,5.4,8.6l0,0C5.3,8.7,5.1,9,5.4,9.5l0,0C5.6,9.9,6,9.9,6.1,9.8l0,0l0,0C6.3,9.7,6.4,9.4,6.2,9L6.2,9z"/>
</svg>
