<?xml version="1.0" encoding="utf-8"?>
<!-- Generator: Adobe Illustrator 27.2.0, SVG Export Plug-In . SVG Version: 6.00 Build 0)  -->
<svg version="1.1" id="Слой_1" xmlns="http://www.w3.org/2000/svg" xmlns:xlink="http://www.w3.org/1999/xlink" x="0px" y="0px"
	 viewBox="0 0 22.6 24" style="enable-background:new 0 0 22.6 24;" xml:space="preserve">
<path d="M11.3,16.3c0.3,0,0.5,0.2,0.5,0.5l0,0c0,0.8,0.7,1.5,1.5,1.5c0.9,0,1.6-0.7,1.6-1.5c0-0.3,0.2-0.5,0.5-0.5
	c0.3,0,0.5,0.2,0.5,0.5c0,1.4-1.2,2.5-2.5,2.5c-1.4,0-2.5-1.1-2.5-2.5l0,0C10.9,16.5,11.1,16.3,11.3,16.3z"/>
<path d="M7.2,16.2c0.3,0,0.5,0.2,0.5,0.5l0,0c0,0.8,0.7,1.5,1.5,1.5c0.9,0,1.6-0.7,1.6-1.5c0-0.3,0.2-0.5,0.5-0.5
	c0.3,0,0.5,0.2,0.5,0.5c0,1.4-1.2,2.5-2.5,2.5c-1.4,0-2.5-1.1-2.5-2.5l0,0C6.8,16.4,7,16.2,7.2,16.2z"/>
<path d="M10.3,11.5c-1.3-0.6-2.9-0.6-4.2,0c-0.2,0.1-0.3,0.4-0.2,0.6c0.1,0.2,0.4,0.3,0.6,0.2c1-0.5,2.3-0.5,3.3,0
	c0.1,0,0.1,0,0.2,0c0.2,0,0.3-0.1,0.4-0.3C10.7,11.9,10.6,11.6,10.3,11.5z"/>
<path d="M16.5,11.5c-1.3-0.6-2.9-0.6-4.2,0c-0.2,0.1-0.3,0.4-0.2,0.6c0.1,0.2,0.4,0.3,0.6,0.2c1-0.5,2.3-0.5,3.3,0
	c0.2,0.1,0.5,0,0.6-0.2C16.8,11.9,16.7,11.6,16.5,11.5z"/>
<path d="M12,13.9c1,0,1.6,1.1,1,2v0l-0.4,0.6c-0.6,0.9-1.9,0.9-2.6,0l0,0l-0.4-0.6c-0.6-0.8,0-2,1-2H12z M10.6,14.8
	c-0.3,0-0.4,0.3-0.3,0.5l0.4,0.6l0,0c0.3,0.3,0.8,0.3,1,0l0.4-0.6l0,0c0.1-0.2,0-0.5-0.3-0.5H10.6z"/>
<path d="M21.5,0c0.1,0,0.3,0,0.4,0C21.9,0.1,22,0.2,22,0.4l0.4,1.9l0,0.1c0.4,2.1,0.1,4.2-0.7,6.1l0,0.1c0,0.1-0.1,0.3-0.3,0.6
	c-0.1,0.2-0.4,0.3-0.6,0.2c-0.2-0.1-0.3-0.4-0.2-0.6c0.1-0.2,0.2-0.5,0.2-0.5c0.8-1.8,1-3.8,0.6-5.7l0-0.1l-0.3-1.4l-0.1,0
	c-1.6,0.5-3,1.4-4.1,2.6l-0.1,0.1l-0.7,0.8l0,0c-0.2,0.2-0.5,0.2-0.6,0c-0.2-0.2-0.2-0.5,0-0.7l0.7-0.8l0.1-0.1
	c1.2-1.3,2.8-2.3,4.5-2.8L21.5,0L21.5,0z"/>
<path d="M0.8,0.1C0.9,0,1.1,0,1.2,0l0.6,0.2l0.1,0c1.7,0.6,3.3,1.6,4.5,2.9l0.7,0.8l0,0c0.2,0.2,0.1,0.5,0,0.6
	c-0.2,0.2-0.5,0.2-0.6,0l0,0L5.7,3.8C4.6,2.6,3.1,1.7,1.5,1.1v0l-0.1,0L1.1,2.5c-0.4,2-0.2,4,0.6,5.8h0c0,0,0,0.1,0.1,0.2L2,8.8l0,0
	c0.1,0.2,0,0.5-0.2,0.6c-0.2,0.1-0.5,0-0.6-0.2l0,0L1,8.9c0-0.1,0-0.1-0.1-0.1l0-0.1C0,6.7-0.2,4.5,0.2,2.3l0.4-1.9l0,0
	C0.6,0.2,0.7,0.1,0.8,0.1z"/>
<path d="M20.9,1.1c0.2-0.1,0.5-0.1,0.6,0.2s0.1,0.5-0.1,0.6l0,0L21,2.2c-1,0.6-1.8,1.5-2.4,2.6l-0.3,0.5c-0.1,0.2-0.4,0.3-0.6,0.2
	c-0.2-0.1-0.3-0.4-0.2-0.6l0.3-0.5l0,0c0.7-1.2,1.6-2.2,2.7-2.9v0L20.9,1.1L20.9,1.1z"/>
<path d="M1.1,1.3C1.2,1.1,1.5,1,1.7,1.1l0,0l0.4,0.2l0,0c1.1,0.7,2.1,1.7,2.7,2.9l0,0.1l0,0l0.3,0.5l0,0c0.1,0.2,0,0.5-0.2,0.6
	c-0.2,0.1-0.5,0-0.6-0.2l0,0L4,4.8c-0.6-1-1.4-1.9-2.4-2.5l0,0L1.2,1.9l0,0C1,1.8,1,1.5,1.1,1.3z"/>
<path d="M21.6,13.8c0-5.2-4.6-10-10.3-10C5.6,3.8,1,8.6,1,13.8c0,2.6,1.1,4.5,2.9,5.7c1.8,1.3,4.4,2,7.3,2c2.9,0,5.5-0.7,7.3-2
	C20.5,18.2,21.6,16.3,21.6,13.8z M22.5,13.8c0,2.9-1.3,5.1-3.4,6.5c-2,1.4-4.8,2.1-7.9,2.1c-3,0-5.8-0.7-7.9-2.1
	c-2.1-1.4-3.4-3.6-3.4-6.5c0-5.7,5-10.9,11.2-10.9C17.5,2.9,22.5,8.1,22.5,13.8z"/>
<path d="M17.7,20.2c0.2-0.1,0.5,0,0.6,0.2l0,0l0.5,1l0,0.1c0.3,0.6,0.7,1.2,1.2,1.6l0,0l0,0c0.2,0.2,0.2,0.5,0,0.6
	c-0.2,0.2-0.5,0.2-0.6,0l0,0l-0.1-0.1c-0.6-0.5-1.1-1.2-1.4-1.9l0-0.1l-0.5-1l0,0C17.4,20.6,17.5,20.3,17.7,20.2z"/>
<path d="M4.3,20.4c0.1-0.2,0.4-0.3,0.6-0.2c0.2,0.1,0.3,0.4,0.2,0.6l0,0l-0.5,1c-0.3,0.7-0.8,1.4-1.4,2l-0.1,0.1
	c-0.2,0.2-0.5,0.2-0.7,0c-0.2-0.2-0.2-0.5,0-0.7l0,0c0.5-0.5,0.9-1,1.2-1.7L4.3,20.4L4.3,20.4z"/>
</svg>
