<?xml version="1.0" encoding="utf-8"?>
<!-- Generator: Adobe Illustrator 27.2.0, SVG Export Plug-In . SVG Version: 6.00 Build 0)  -->
<svg version="1.1" id="Слой_1" xmlns="http://www.w3.org/2000/svg" xmlns:xlink="http://www.w3.org/1999/xlink" x="0px" y="0px"
	 viewBox="0 0 36.1 37.2" style="enable-background:new 0 0 36.1 37.2;" xml:space="preserve">
<style type="text/css">
	.st0{fill:#F00000;stroke:#FFFFFF;stroke-width:1.1486;}
</style>
<path class="st0" d="M17.7,14.7c0.6-0.2,1.2-0.4,1.8-0.3l0.2,0c0.5,0,0.9,0.1,1.3,0.3l0.2,0.1l0,0l0,0c0.9,0.4,1.7,0.9,2.4,1.4
	c0.2,0.1,0.4,0.3,0.6,0.4l0,0c1.5,1,3.1,1.8,4.7,2.4c0.2,0.1,0.4,0.2,0.7,0.3c1.6,0.6,3.4,1.3,4.7,2.9c1.4,1.8,1.6,4.6,0.4,6.4
	c-0.7,1.1-1.8,1.9-3.4,2.5l0,0c-1,0.4-2,0.6-3.1,0.7c-2.2,0.2-4.4,1.1-6.2,2.5c-0.9,0.7-1.8,1.2-2.7,1.6l0,0c-0.1,0-0.2,0.1-0.3,0.1
	c-1.4,0.6-2.6,0.7-3.8,0.5c-2.2-0.5-4-2.6-4.2-4.9c-0.2-2,0.6-3.8,1.3-5.4l0.3-0.6c0.7-1.6,1.3-3.3,1.7-5l0,0c0-0.2,0.1-0.4,0.1-0.7
	l0,0c0.2-0.9,0.4-1.8,0.7-2.7l0,0l0,0l0,0C15.7,16.1,16.6,15.2,17.7,14.7z"/>
<path class="st0" d="M26.8,6.3c0.8-1.2,1.9-2,3.2-2l0.3,0l0.3,0c1.3,0.2,2.4,1,3.1,2.3c0.8,1.3,1.1,3,1,4.7
	c-0.1,1.6-0.6,2.9-1.5,3.9l-0.2,0.2c-0.4,0.4-0.8,0.7-1.3,0.9c-0.7,0.3-1.4,0.4-2.2,0.3c-1.4-0.1-2.4-0.7-3.1-1.7
	c-0.6-1-0.9-2.4-0.7-4.1C25.7,9,26.1,7.5,26.8,6.3z"/>
<path class="st0" d="M18.1,0.7c1.4-0.4,3,0,4.3,1.1c1.3,1,2.2,2.6,2.8,4.3c0.5,1.7,0.5,3.4-0.1,4.7c-0.5,1.1-1.4,1.9-2.6,2.4
	c-0.2,0.1-0.3,0.1-0.5,0.2c-1.4,0.4-2.7,0.3-3.8-0.6c-1-0.8-1.8-2.1-2.3-3.9c-0.3-0.9-0.5-1.8-0.5-2.6c-0.1-0.8,0-1.6,0.1-2.3
	l0.1-0.3C15.8,2.2,16.7,1.2,18.1,0.7z"/>
<path class="st0" d="M1.5,16c0.9-1.1,2.3-1.4,3.8-1c1.3,0.3,2.7,1.1,4,2.3c1.3,1.1,2.1,2.3,2.3,3.5c0.3,1.2-0.1,2.3-0.8,3.2
	l-0.2,0.2c-0.5,0.6-1.1,1-1.8,1.3c-0.5,0.2-1,0.3-1.6,0.3c-1.4,0-2.8-0.6-4-1.7c-1.3-1.1-2.2-2.6-2.5-4C0.4,18.5,0.6,17.1,1.5,16
	L1.5,16z"/>
<path class="st0" d="M7.7,5c1.3-0.7,2.8-0.5,4.2,0.4l0.2,0.2c1.1,0.8,2.1,2.1,2.9,3.7c0.2,0.4,0.4,0.7,0.5,1.1
	c0.5,1.2,0.7,2.3,0.5,3.3c-0.2,1.3-1,2.4-2.3,3c-0.2,0.1-0.3,0.2-0.5,0.2c-1.2,0.5-2.4,0.5-3.5,0.1l0,0c-1.4-0.5-2.6-1.7-3.4-3.3
	c-0.8-1.6-1.2-3.4-1-5C5.6,7,6.4,5.7,7.7,5z"/>
</svg>
