<?xml version="1.0" encoding="utf-8"?>
<!-- Generator: Adobe Illustrator 27.2.0, SVG Export Plug-In . SVG Version: 6.00 Build 0)  -->
<svg version="1.1" id="Слой_1" xmlns="http://www.w3.org/2000/svg" xmlns:xlink="http://www.w3.org/1999/xlink" x="0px" y="0px"
	 viewBox="0 0 13.4 22.4" style="enable-background:new 0 0 13.4 22.4;" xml:space="preserve">
<path d="M10.4,22.4H3c-1.6,0-3-1.3-3-3V3c0-1.6,1.3-3,3-3h7.5c1.6,0,3,1.3,3,3v16.5C13.4,21.1,12.1,22.4,10.4,22.4z M3,1.5
	C2.2,1.5,1.5,2.2,1.5,3v16.5c0,0.8,0.7,1.5,1.5,1.5h7.5c0.8,0,1.5-0.7,1.5-1.5V3c0-0.8-0.7-1.5-1.5-1.5H8.9v0.8C8.9,2.7,8.6,3,8.2,3
	h-3C4.7,3,4.4,2.7,4.4,2.2V1.5H3z M5.9,1.5h1.5H5.9z M8.2,20.2h-3c-0.4,0-0.8-0.3-0.8-0.8s0.3-0.8,0.8-0.8h3c0.4,0,0.8,0.3,0.8,0.8
	S8.6,20.2,8.2,20.2z"/>
</svg>
