<?xml version="1.0" encoding="utf-8"?>
<!-- Generator: Adobe Illustrator 27.2.0, SVG Export Plug-In . SVG Version: 6.00 Build 0)  -->
<svg version="1.1" id="Слой_1" xmlns="http://www.w3.org/2000/svg" xmlns:xlink="http://www.w3.org/1999/xlink" x="0px" y="0px"
	 viewBox="0 0 28 22" style="enable-background:new 0 0 28 22;" xml:space="preserve">
<path d="M20.5,21.8c-2.2,0-4-1.7-4-3.8s1.8-3.9,4-3.9s4,1.7,4,3.9S22.7,21.8,20.5,21.8z M20.5,15.5c-1.4,0-2.5,1-2.5,2.4
	c0,1.3,1.1,2.3,2.5,2.3s2.5-1,2.5-2.3C23,16.4,21.7,15.5,20.5,15.5z"/>
<path d="M7.6,21.8c-2.2,0-4-1.7-4-3.8s1.8-3.9,4-3.9c2.3,0,3.9,1.7,3.9,3.9C11.5,20,9.8,21.8,7.6,21.8z M7.6,15.5
	c-1.4,0-2.5,1-2.5,2.4c0,1.3,1.1,2.3,2.5,2.3c1.4,0,2.4-1,2.4-2.3C10,16.5,9,15.5,7.6,15.5z"/>
<path d="M24.7,18.7h-1c-0.4,0-0.8-0.3-0.8-0.8s0.3-0.8,0.8-0.8h1.5c0.4-0.1,0.9-0.5,1-0.9l0-0.4v-3.5c0-4-3.4-7.3-7.5-7.3v10.3
	c0,0.4-0.3,0.8-0.8,0.8s-0.8-0.3-0.8-0.8V4.7c0-1.5,0-2.3-0.3-2.6c-0.4-0.3-1.3-0.3-2.8-0.3H1.1C0.7,1.8,0.4,1.4,0.4,1
	s0.3-0.8,0.8-0.8H14c1.9,0,3,0,3.8,0.7c0.7,0.6,0.8,1.3,0.9,2.5c5,0.1,9,4,9,8.8v4c-0.2,1.3-1.1,2.2-2.4,2.3L24.7,18.7z M17.2,18.7
	h-6.5c-0.4,0-0.8-0.3-0.8-0.8s0.3-0.8,0.8-0.8h6.5c0.4,0,0.8,0.3,0.8,0.8S17.6,18.7,17.2,18.7z M4.4,18.7c-1.3,0-2.2,0-2.8-0.5
	C1.3,18,1,17.7,0.8,17.3c-0.4-0.6-0.4-1.3-0.4-2.6v-2.8c0-0.4,0.3-0.8,0.8-0.8s0.8,0.3,0.8,0.8v2.8c0,0.9,0,1.5,0.2,1.8
	c0.2,0.3,0.3,0.4,0.5,0.5c0.2,0.2,1,0.2,1.9,0.2c0.4,0,0.8,0.3,0.8,0.8S4.8,18.7,4.4,18.7z"/>
<path d="M6.3,9.2H1.1c-0.4,0-0.8-0.3-0.8-0.8s0.3-0.8,0.8-0.8h5.2C6.7,7.8,7,8.1,7,8.5S6.7,9.2,6.3,9.2z M8.8,5.5H1.1
	c-0.4,0-0.8-0.3-0.8-0.8S0.7,4,1.1,4h7.7c0.4,0,0.8,0.3,0.8,0.8S9.2,5.5,8.8,5.5z"/>
</svg>
