<?xml version="1.0" encoding="utf-8"?>
<!-- Generator: Adobe Illustrator 27.2.0, SVG Export Plug-In . SVG Version: 6.00 Build 0)  -->
<svg version="1.1" id="Слой_1" xmlns="http://www.w3.org/2000/svg" xmlns:xlink="http://www.w3.org/1999/xlink" x="0px" y="0px"
	 viewBox="0 0 32 30.6" style="enable-background:new 0 0 32 30.6;" xml:space="preserve">
<g>
	<path d="M15.1,1.3c0.1-0.2,0.2-0.3,0.3-0.4c0.2-0.1,0.3-0.2,0.5-0.2c0.2,0,0.4,0.1,0.5,0.2c0.2,0.1,0.3,0.3,0.3,0.4l3.5,8.5
		c0.1,0.2,0.2,0.3,0.3,0.4c0.1,0.1,0.3,0.2,0.5,0.2l9.2,0.7c0.8,0.1,1.2,1.1,0.5,1.6l-7,6c-0.1,0.1-0.2,0.3-0.3,0.4
		c-0.1,0.2-0.1,0.3,0,0.5l2.1,9c0,0.2,0,0.4,0,0.5s-0.2,0.3-0.3,0.4c-0.1,0.1-0.3,0.2-0.5,0.2c-0.2,0-0.4,0-0.5-0.1l-7.9-4.8
		c-0.1-0.1-0.3-0.1-0.5-0.1c-0.2,0-0.3,0-0.5,0.1l-7.9,4.8c-0.2,0.1-0.3,0.1-0.5,0.1c-0.2,0-0.4-0.1-0.5-0.2
		c-0.1-0.1-0.3-0.3-0.3-0.4c-0.1-0.2-0.1-0.4,0-0.5l2.1-9c0-0.2,0-0.3,0-0.5c-0.1-0.2-0.2-0.3-0.3-0.4l-7-6
		c-0.1-0.1-0.2-0.3-0.3-0.5c-0.1-0.2,0-0.4,0-0.5c0.1-0.2,0.2-0.3,0.3-0.4c0.1-0.1,0.3-0.2,0.5-0.2l9.2-0.7c0.2,0,0.3-0.1,0.5-0.2
		c0.1-0.1,0.2-0.2,0.3-0.4L15.1,1.3z"/>
	<path d="M7.2,30.6C7.1,30.6,7.1,30.6,7.2,30.6c-0.4,0-0.7-0.1-1-0.3c-0.3-0.2-0.5-0.5-0.6-0.8c-0.1-0.3-0.1-0.7-0.1-1l2.1-9
		c0,0,0-0.1,0-0.1c0,0,0-0.1-0.1-0.1l-7-6c-0.3-0.2-0.4-0.5-0.5-0.8c-0.1-0.3-0.1-0.7,0-1c0.1-0.3,0.3-0.6,0.6-0.8
		c0.3-0.2,0.6-0.3,0.9-0.4l9.2-0.7c0,0,0.1,0,0.1,0c0,0,0,0,0.1-0.1L14.5,1c0.1-0.3,0.3-0.6,0.6-0.8c0.6-0.4,1.3-0.4,1.9,0
		c0.3,0.2,0.5,0.5,0.6,0.8l3.5,8.5c0,0,0,0.1,0.1,0.1c0,0,0.1,0,0.1,0l9.2,0.7c0.7,0.1,1.3,0.5,1.5,1.2c0.2,0.7,0,1.4-0.5,1.8l-7,6
		c0,0,0,0.1-0.1,0.1c0,0,0,0.1,0,0.1l2.1,9c0.1,0.3,0.1,0.7-0.1,1c-0.1,0.3-0.3,0.6-0.6,0.8c-0.3,0.2-0.6,0.3-0.9,0.3
		c-0.3,0-0.7-0.1-0.9-0.2l-7.9-4.8c-0.1,0-0.1,0-0.2,0L8,30.4C7.8,30.5,7.5,30.6,7.2,30.6z M16,1.5c0,0-0.1,0-0.1,0
		c0,0-0.1,0-0.1,0.1c0,0,0,0,0,0l-3.5,8.5c-0.1,0.3-0.3,0.5-0.6,0.7c-0.3,0.2-0.5,0.3-0.9,0.3l-9.2,0.7c0,0-0.1,0-0.1,0
		c0,0,0,0.1-0.1,0.1c0,0,0,0.1,0,0.1c0,0,0,0.1,0.1,0.1l7,6C8.8,18.4,9,18.7,9.1,19c0.1,0.3,0.1,0.6,0,0.9l-2.1,9c0,0,0,0.1,0,0.1
		c0,0,0,0.1,0.1,0.1c0,0,0.1,0,0.1,0c0,0,0.1,0,0.1,0l7.9-4.8c0.5-0.3,1.2-0.3,1.8,0l7.9,4.8c0,0,0.1,0,0.1,0c0,0,0.1,0,0.1,0
		c0,0,0.1-0.1,0.1-0.1c0,0,0-0.1,0-0.1l-2.1-9c-0.1-0.3-0.1-0.6,0-0.9c0.1-0.3,0.3-0.6,0.5-0.8l7-6c0.1-0.1,0.1-0.1,0.1-0.2
		c0-0.1-0.1-0.1-0.2-0.1l-9.2-0.7c-0.3,0-0.6-0.1-0.9-0.3c-0.3-0.2-0.4-0.4-0.6-0.7l-3.5-8.5c0,0,0-0.1-0.1-0.1
		C16.1,1.5,16,1.5,16,1.5z M15.1,1.3L15.1,1.3L15.1,1.3z"/>
</g>
</svg>
