<?xml version="1.0" encoding="utf-8"?>
<!-- Generator: Adobe Illustrator 27.2.0, SVG Export Plug-In . SVG Version: 6.00 Build 0)  -->
<svg version="1.1" id="Слой_1" xmlns="http://www.w3.org/2000/svg" xmlns:xlink="http://www.w3.org/1999/xlink" x="0px" y="0px"
	 viewBox="0 0 13.7 13.1" style="enable-background:new 0 0 13.7 13.1;" xml:space="preserve">
<style type="text/css">
	.st0{fill:#FFB400;stroke:#FFB400;stroke-width:1.5;stroke-linecap:round;stroke-linejoin:round;}
</style>
<path class="st0" d="M6.5,1c0-0.1,0.1-0.1,0.1-0.2c0.1,0,0.1-0.1,0.2-0.1c0.1,0,0.1,0,0.2,0.1c0.1,0,0.1,0.1,0.1,0.2l1.4,3.4
	c0,0.1,0.1,0.1,0.1,0.2c0.1,0,0.1,0.1,0.2,0.1l3.7,0.3c0.3,0,0.5,0.4,0.2,0.7L10,8C10,8,9.9,8.1,9.9,8.1c0,0.1,0,0.1,0,0.2l0.9,3.6
	c0,0.1,0,0.1,0,0.2c0,0.1-0.1,0.1-0.1,0.2c-0.1,0-0.1,0.1-0.2,0.1c-0.1,0-0.1,0-0.2-0.1L7,10.4c-0.1,0-0.1-0.1-0.2-0.1
	c-0.1,0-0.1,0-0.2,0.1l-3.1,1.9c-0.1,0-0.1,0.1-0.2,0.1c-0.1,0-0.1,0-0.2-0.1S3,12.2,3,12.2c0-0.1,0-0.1,0-0.2l0.9-3.6
	c0-0.1,0-0.1,0-0.2C3.8,8.1,3.7,8,3.7,8L0.9,5.6c-0.1,0-0.1-0.1-0.1-0.2c0-0.1,0-0.1,0-0.2C0.8,5.1,0.8,5,0.9,5C1,4.9,1,4.9,1.1,4.9
	l3.7-0.3c0.1,0,0.1,0,0.2-0.1c0.1,0,0.1-0.1,0.1-0.2L6.5,1z"/>
</svg>
