<?xml version="1.0" encoding="utf-8"?>
<!-- Generator: Adobe Illustrator 27.2.0, SVG Export Plug-In . SVG Version: 6.00 Build 0)  -->
<svg version="1.1" id="Слой_1" xmlns="http://www.w3.org/2000/svg" xmlns:xlink="http://www.w3.org/1999/xlink" x="0px" y="0px"
	 viewBox="0 0 20.7 21" style="enable-background:new 0 0 20.7 21;" xml:space="preserve">
<path d="M17.9,21h-15c-0.4,0-0.8-0.3-0.8-0.8c0-1,0.4-1.9,1.1-2.7c0.5-0.5,1.2-0.9,1.9-1v-2.7c0.1-1,0.9-1.8,1.9-1.8h0.4
	c0.3-0.6,0.5-1.2,0.6-1.9C7.3,9.8,6.5,9.4,5.9,8.8C4.5,8.8,3.1,8.1,2.1,7.1C1,6.1,0.3,4.8,0,3.4C-0.1,3,0.2,2.5,0.6,2.5
	C1.4,2.2,2.2,2.2,2.9,2V1.1c0-0.4,0.3-0.7,0.6-0.7c4.5-0.6,9.2-0.6,13.7,0c0.4,0.1,0.6,0.4,0.6,0.7V2c0.8,0.1,1.6,0.3,2.3,0.4
	c0.4,0.1,0.7,0.5,0.6,0.9c-0.2,1.5-1,2.8-2.1,3.8c-1,1-2.4,1.6-3.8,1.7c-0.7,0.5-1.4,0.9-2.2,1.2c0.1,0.6,0.3,1.3,0.6,1.9h0.4
	c1,0,1.9,0.8,1.9,1.9v2.7c0.7,0.1,1.4,0.5,1.9,1c0.7,0.7,1.1,1.6,1.1,2.7C18.7,20.7,18.3,21,17.9,21z M3.8,19.5H17
	c-0.1-0.3-0.3-0.6-0.5-0.8c-0.4-0.4-1-0.7-1.6-0.7h-9c-0.6,0-1.2,0.2-1.6,0.7C4.1,18.9,3.9,19.2,3.8,19.5z M6.7,16.5h7.5v-2.6
	c0-0.2-0.2-0.4-0.4-0.4h-0.9l0,0h-5l0,0H7c-0.2,0-0.4,0.2-0.4,0.4L6.7,16.5L6.7,16.5z M9.1,11.9h2.6c-0.2-0.5-0.3-1-0.4-1.6
	c-0.6,0.1-1.2,0.1-1.8,0C9.4,10.9,9.3,11.4,9.1,11.9z M9.1,8.8c0.9,0.2,1.8,0.2,2.7,0l0,0c0.9-0.2,1.7-0.6,2.4-1.2l0,0
	c1.4-1.1,2.2-2.8,2.2-4.6V2.7l0,0V1.8c-4-0.5-8-0.5-12,0v0.8l0,0V3c0,1.8,0.8,3.5,2.2,4.6l0,0C7.3,8.1,8.2,8.6,9.1,8.8L9.1,8.8z
	 M1.7,3.8C2,4.6,2.5,5.4,3.1,6c0.2,0.2,0.5,0.4,0.8,0.6c-0.5-0.9-0.9-2-1-3.1C2.5,3.7,2.1,3.8,1.7,3.8z M17.9,3.5
	c-0.1,1.1-0.4,2.2-1,3.1c0.3-0.2,0.5-0.4,0.8-0.6c0.7-0.6,1.2-1.4,1.4-2.3C18.7,3.8,18.3,3.7,17.9,3.5z"/>
</svg>
