<?xml version="1.0" encoding="utf-8"?>
<!-- Generator: Adobe Illustrator 27.2.0, SVG Export Plug-In . SVG Version: 6.00 Build 0)  -->
<svg version="1.1" id="Слой_1" xmlns="http://www.w3.org/2000/svg" xmlns:xlink="http://www.w3.org/1999/xlink" x="0px" y="0px"
	 viewBox="0 0 19.9 19.9" style="enable-background:new 0 0 19.9 19.9;" xml:space="preserve">
<path d="M12.5,19.9c-0.7,0-1.5-0.3-2.1-0.9L0.9,9.4C0.3,8.9,0,8.1,0,7.3V3c0-0.8,0.3-1.6,0.9-2.1C1.4,0.3,2.2,0,3,0h4.3
	c0.4,0,0.8,0.1,1.1,0.2c0.4,0.2,0.7,0.4,1,0.7l9.6,9.6c1,1,1.2,2.4,0.4,3.5c-1.4,2.2-3.3,4-5.4,5.4C13.5,19.7,13,19.9,12.5,19.9z
	 M3,1.5c-0.4,0-0.8,0.2-1.1,0.4C1.7,2.2,1.5,2.6,1.5,3v4.3c0,0.4,0.2,0.8,0.4,1.1l9.6,9.6c0.5,0.5,1.2,0.6,1.7,0.2c2-1.3,3.7-3,5-5
	c0.3-0.5,0.2-1.2-0.2-1.7L8.4,1.9C8.2,1.8,8.1,1.7,7.9,1.6C7.7,1.5,7.5,1.5,7.3,1.5H3z"/>
</svg>
