<?xml version="1.0" encoding="utf-8"?>
<!-- Generator: Adobe Illustrator 27.2.0, SVG Export Plug-In . SVG Version: 6.00 Build 0)  -->
<svg version="1.1" id="Слой_1" xmlns="http://www.w3.org/2000/svg" xmlns:xlink="http://www.w3.org/1999/xlink" x="0px" y="0px"
	 viewBox="0 0 19.5 21" style="enable-background:new 0 0 19.5 21;" xml:space="preserve">
<path d="M9.8,21L9.8,21L9.8,21c-0.1,0-0.1,0-0.2,0c-0.1,0-0.1,0-0.2-0.1c0,0,0,0,0,0l-2.2-1.3c-0.4-0.2-0.5-0.7-0.3-1
	c0.2-0.4,0.7-0.5,1-0.3L9,18.9V18c0-0.4,0.3-0.8,0.8-0.8s0.8,0.3,0.8,0.8v0.9l1.1-0.7c0.4-0.2,0.8-0.1,1,0.3c0.2,0.4,0.1,0.8-0.3,1
	l-2.2,1.3c0,0,0,0,0,0c-0.1,0-0.1,0.1-0.2,0.1C9.9,21,9.8,21,9.8,21z M16.5,17.1c-0.3,0-0.5-0.1-0.6-0.4c-0.2-0.4-0.1-0.8,0.3-1
	l1.9-1.1v-1.8c0-0.4,0.3-0.8,0.8-0.8s0.8,0.3,0.8,0.8V15c0,0.3-0.1,0.5-0.4,0.6L16.9,17C16.8,17,16.6,17.1,16.5,17.1z M3,17.1
	c-0.1,0-0.3,0-0.4-0.1l-2.2-1.3C0.1,15.5,0,15.3,0,15v-2.2C0,12.3,0.3,12,0.8,12s0.8,0.3,0.8,0.8v1.8l1.9,1.1c0.4,0.2,0.5,0.7,0.3,1
	C3.5,16.9,3.3,17.1,3,17.1z M9.8,14.2c-0.4,0-0.8-0.3-0.8-0.8v-1.8l-1.9-1.1c-0.4-0.2-0.5-0.7-0.3-1c0.2-0.4,0.7-0.5,1-0.3l1.9,1.1
	l1.9-1.1c0.4-0.2,0.8-0.1,1,0.3c0.2,0.4,0.1,0.8-0.3,1l-1.9,1.1v1.8C10.5,13.9,10.2,14.2,9.8,14.2z M18.8,9C18.3,9,18,8.7,18,8.2
	V7.3L16.9,8c-0.4,0.2-0.8,0.1-1-0.3c-0.2-0.4-0.1-0.8,0.3-1L17.3,6l-1.1-0.7c-0.4-0.2-0.5-0.7-0.3-1c0.2-0.4,0.7-0.5,1-0.3l2.2,1.3
	c0,0,0,0,0,0c0.1,0,0.1,0.1,0.2,0.1c0,0,0.1,0.1,0.1,0.2c0,0.1,0.1,0.1,0.1,0.2c0,0.1,0,0.1,0,0.2c0,0,0,0,0,0v2.2
	C19.5,8.7,19.2,9,18.8,9z M0.8,9C0.3,9,0,8.7,0,8.2V6c0,0,0,0,0,0c0-0.1,0-0.1,0-0.2s0-0.1,0.1-0.2c0-0.1,0.1-0.1,0.1-0.2
	c0,0,0.1-0.1,0.2-0.1c0,0,0,0,0,0L2.6,4C3,3.8,3.4,4,3.6,4.3c0.2,0.4,0.1,0.8-0.3,1L2.2,6l1.1,0.7c0.4,0.2,0.5,0.7,0.3,1
	C3.4,8,3,8.2,2.6,8L1.5,7.3v0.9C1.5,8.7,1.2,9,0.8,9z M12,2.8c-0.1,0-0.3,0-0.4-0.1L9.8,1.6L7.9,2.7c-0.4,0.2-0.8,0.1-1-0.3
	c-0.2-0.4-0.1-0.8,0.3-1l2.2-1.3C9.6,0,9.9,0,10.1,0.1l2.2,1.3c0.4,0.2,0.5,0.7,0.3,1C12.5,2.7,12.3,2.8,12,2.8z"/>
</svg>
