<?xml version="1.0" encoding="utf-8"?>
<!-- Generator: Adobe Illustrator 27.2.0, SVG Export Plug-In . SVG Version: 6.00 Build 0)  -->
<svg version="1.1" id="Слой_1" xmlns="http://www.w3.org/2000/svg" xmlns:xlink="http://www.w3.org/1999/xlink" x="0px" y="0px"
	 viewBox="0 0 20 14" style="enable-background:new 0 0 20 14;" xml:space="preserve">
<style type="text/css">
	.st0{fill:none;stroke:#616161;stroke-width:1.5;stroke-linecap:round;stroke-linejoin:round;}
</style>
<path class="st0" d="M6.9,1.1C6.9,1,7,1,7,0.9c0.1,0,0.1-0.1,0.2-0.1c0.1,0,0.1,0,0.2,0.1S7.6,1,7.6,1.1l1.5,3.6
	c0,0.1,0.1,0.1,0.1,0.2C9.3,4.9,9.3,5,9.4,5l3.8,0.3c0.3,0,0.5,0.4,0.2,0.7l-2.9,2.4c-0.1,0-0.1,0.1-0.1,0.2c0,0.1,0,0.1,0,0.2
	l0.8,3.8c0,0.1,0,0.1,0,0.2c0,0.1-0.1,0.1-0.1,0.2c-0.1,0-0.1,0.1-0.2,0.1c-0.1,0-0.1,0-0.2-0.1l-3.3-2c-0.1,0-0.1-0.1-0.2-0.1
	c-0.1,0-0.1,0-0.2,0.1l-3.3,2c-0.1,0-0.1,0.1-0.2,0.1c-0.1,0-0.1,0-0.2-0.1c-0.1,0-0.1-0.1-0.1-0.2c0-0.1,0-0.1,0-0.2L4,8.9
	c0-0.1,0-0.1,0-0.2S3.9,8.6,3.9,8.5L1.2,5.9c-0.1,0-0.1-0.1-0.1-0.2s0-0.1,0-0.2c0-0.1,0.1-0.1,0.1-0.2c0,0,0.1-0.1,0.2-0.1l3.8-0.3
	c0.1,0,0.1,0,0.2-0.1c0.1,0,0.1-0.1,0.1-0.2L6.9,1.1z"/>
</svg>
