<?xml version="1.0" encoding="utf-8"?>
<!-- Generator: Adobe Illustrator 27.2.0, SVG Export Plug-In . SVG Version: 6.00 Build 0)  -->
<svg version="1.1" id="Слой_1" xmlns="http://www.w3.org/2000/svg" xmlns:xlink="http://www.w3.org/1999/xlink" x="0px" y="0px"
	 viewBox="0 0 20 14" style="enable-background:new 0 0 20 14;" xml:space="preserve">
<style type="text/css">
	.st0{fill:#FFFFFF;stroke:#FFB400;stroke-width:1.5;stroke-linecap:round;stroke-linejoin:round;}
</style>
<path class="st0" d="M7.2,1.3c0-0.1,0.1-0.1,0.1-0.2C7.4,1.1,7.4,1,7.5,1s0.1,0,0.2,0.1c0.1,0,0.1,0.1,0.1,0.2l1.4,3.4
	c0,0.1,0.1,0.1,0.1,0.2C9.4,4.9,9.4,5,9.5,5l3.7,0.3c0.3,0,0.5,0.4,0.2,0.7l-2.7,2.3l-0.1,0.1c0,0.1,0,0.1,0,0.2l0.9,3.6
	c0,0.1,0,0.1,0,0.2c0,0.1-0.1,0.1-0.1,0.2c-0.1,0-0.1,0.1-0.2,0.1c-0.1,0-0.1,0-0.2-0.1l-3.3-1.9c-0.1,0-0.1-0.1-0.2-0.1
	s-0.1,0-0.2,0.1l-3.1,1.9c-0.1,0-0.1,0.1-0.2,0.1c-0.1,0-0.1,0-0.2-0.1s-0.1-0.1-0.1-0.1c0-0.1,0-0.1,0-0.2l0.9-3.6
	c0-0.1,0-0.1,0-0.2C4.5,8.4,4.4,8.3,4.4,8.3L1.6,5.9c-0.1,0-0.1-0.1-0.1-0.2s0-0.1,0-0.2c0-0.1,0-0.2,0.1-0.2
	c0.1-0.1,0.1-0.1,0.2-0.1l3.7-0.3c0.1,0,0.1,0,0.2-0.1c0.1,0,0.1-0.1,0.1-0.2L7.2,1.3z"/>
</svg>
