<svg width="60" height="60" viewBox="0 0 60 60" fill="none" xmlns="http://www.w3.org/2000/svg">
<rect width="60" height="60" fill="#F00000"/>
<rect width="50" height="50" transform="translate(5 5)" fill="#F00000"/>
<path fill-rule="evenodd" clip-rule="evenodd" d="M7.83008 52.1698H54.9999V5H7.83008V52.1698Z" fill="#F00000"/>
<path fill-rule="evenodd" clip-rule="evenodd" d="M17.7362 11L20.6063 19.9123H20.6512L23.4764 11H27.378L22.4001 25.7187H18.8125L16.2114 17.2116H16.1666L13.5655 25.7187H9.97788L5 11H8.90158L11.7269 19.9123H11.7717L14.6418 11C15.6733 11 16.7047 11 17.7362 11ZM47.6035 26.1238C44.3746 26.0788 41.7287 23.6032 41.3699 20.4074C41.3251 20.1373 41.3251 19.7772 41.3251 19.4621V11H45.1369V20.2273C45.1369 21.6227 46.2581 22.793 47.6931 22.838C47.738 22.838 47.738 22.838 47.7828 22.838C49.1731 22.793 50.339 21.6227 50.339 20.2273V11H54.1509V19.4621C54.1509 19.7772 54.1509 20.1373 54.1061 20.4074C53.7473 23.6032 51.1014 26.0788 47.8277 26.1238C47.738 26.1238 47.6931 26.1238 47.6035 26.1238ZM31.3693 20.0473H34.7776L33.2528 15.4111H32.9389L32.4007 16.8515L31.3693 20.0473ZM35.7642 22.883H30.4275L29.4409 25.7187H25.5393L30.9208 11H35.2709L40.6075 25.7187H36.7059L36.1678 24.0983L35.7642 22.883ZM50.0251 42.0128C50.1148 41.8778 50.2045 41.7428 50.2045 41.5627V41.2927H46.8411V38.2769C49.2627 38.2769 51.7293 38.2769 54.1509 38.2769V40.9776C54.1509 44.3534 50.2494 46.9641 46.8411 46.9641C42.5359 46.9641 38.9931 43.4532 38.9931 39.1321C38.9931 34.766 42.5359 31.2551 46.8411 31.2551C49.8009 31.2551 52.3571 32.8755 53.7025 35.3061L50.1597 36.6565C49.6215 35.8913 48.9937 35.3512 48.2761 35.0811C45.4509 34.0008 42.7153 36.1164 42.7153 39.1321C42.7153 41.5177 44.3297 43.4532 46.3926 43.6333C47.738 43.7233 49.2179 43.0481 50.0251 42.0128ZM10.3366 35.0811V43.1381H11.5026C13.7001 43.1381 15.4939 41.3377 15.4939 39.1321C15.4939 36.8815 13.7001 35.0811 11.5026 35.0811H10.3366ZM11.682 31.7502C15.9424 31.8403 19.3506 34.856 19.3506 39.1321C19.3506 43.4082 15.9424 46.3789 11.682 46.469H11.5475C9.88819 46.469 8.22889 46.469 6.52476 46.469V31.7502C8.22889 31.7502 9.88819 31.7502 11.5475 31.7502H11.682ZM29.1719 35.0811C31.3693 35.0811 33.208 36.8815 33.208 39.1321C33.208 41.3377 31.3693 43.1381 29.1719 43.1381C26.9296 43.1381 25.1357 41.3377 25.1357 39.1321C25.1357 36.8815 26.9296 35.0811 29.1719 35.0811ZM29.1719 31.2551C33.477 31.2551 37.0199 34.766 37.0199 39.1321C37.0199 43.4532 33.477 46.9641 29.1719 46.9641C24.8218 46.9641 21.3239 43.4532 21.3239 39.1321C21.3239 34.766 24.8218 31.2551 29.1719 31.2551Z" fill="#FBFDFE"/>
</svg>
