<?xml version="1.0" encoding="utf-8"?>
<svg width="54" height="48" viewBox="0 0 54 48" fill="none" xmlns="http://www.w3.org/2000/svg">
	<g clip-path="url(#clip0_4208_51484)">
		<path d="M20.9057 43.4404C20.9146 44.065 20.801 44.6852 20.5714 45.2661C20.3295 45.8107 19.9796 46.3006 19.5429 46.7061C19.0845 47.1319 18.5453 47.4613 17.9572 47.6747C17.3245 47.8992 16.657 48.0095 15.9857 48.0004C15.3116 48.001 14.6423 47.888 14.0057 47.6661C13.4229 47.4523 12.8894 47.1229 12.4372 46.6975C11.9885 46.2921 11.632 45.7952 11.3914 45.2404C11.1518 44.6679 11.0322 44.0524 11.04 43.4318C11.0294 42.8368 11.1648 42.2482 11.4343 41.7175C11.7079 41.2011 12.0807 40.7438 12.5314 40.3718C13.0096 40.0013 13.5453 39.7117 14.1172 39.5147C15.0012 39.1928 15.9529 39.1026 16.8816 39.2527C17.8103 39.4027 18.6852 39.788 19.4229 40.3718C19.8689 40.7498 20.231 41.217 20.4857 41.7432C20.7602 42.2727 20.9014 42.8612 20.8972 43.4575L20.9057 43.4404ZM13.4229 43.4404C13.4207 43.8837 13.5392 44.3193 13.7657 44.7004C13.9873 45.0646 14.3045 45.361 14.6829 45.5575C15.0797 45.7648 15.5208 45.8731 15.9686 45.8731C16.4163 45.8731 16.8574 45.7648 17.2543 45.5575C17.6196 45.3463 17.9307 45.0528 18.1629 44.7004C18.3931 44.3209 18.5119 43.8842 18.5057 43.4404C18.504 43.0645 18.3841 42.6986 18.1629 42.3947C17.9303 42.0365 17.6121 41.7419 17.2372 41.5375C16.8491 41.3322 16.4162 41.2261 15.9772 41.229C15.5387 41.2306 15.1068 41.3363 14.7172 41.5375C14.3356 41.7295 14.0173 42.027 13.8 42.3947C13.5786 42.705 13.4588 43.0763 13.4572 43.4575L13.4229 43.4404ZM48 41.3918H50.28C50.6651 41.3882 51.0389 41.5219 51.3343 41.769C51.471 41.8824 51.5809 42.0245 51.6564 42.1852C51.7319 42.346 51.771 42.5214 51.771 42.699C51.771 42.8765 51.7319 43.0519 51.6564 43.2127C51.5809 43.3734 51.471 43.5156 51.3343 43.629C51.0397 43.8784 50.6661 44.0151 50.28 44.0147H48V41.3918ZM54 42.7118C53.9936 42.2621 53.8908 41.819 53.6986 41.4124C53.5064 41.0058 53.2292 40.6451 52.8857 40.3547C52.1426 39.715 51.192 39.3677 50.2114 39.3775H45.7114V47.7775H48V46.0632H50.1857L50.8457 47.7775H53.1429L52.2857 45.4804C52.7968 45.1915 53.2271 44.7789 53.5372 44.2804C53.8295 43.8149 53.9895 43.2785 54 42.729V42.7118ZM7.43145 44.6404C7.20342 45.0612 6.85797 45.4066 6.43716 45.6347C5.9931 45.8855 5.48994 46.0128 4.98002 46.0032C4.27293 46.0122 3.58698 45.7622 3.05145 45.3004C2.79697 45.093 2.59185 44.8316 2.45099 44.5351C2.31012 44.2385 2.23703 43.9144 2.23703 43.5861C2.23703 43.2578 2.31012 42.9337 2.45099 42.6372C2.59185 42.3406 2.79697 42.0792 3.05145 41.8718C3.58938 41.4141 4.27373 41.1647 4.98002 41.169C5.4887 41.1609 5.99078 41.2849 6.43716 41.529C6.85858 41.7601 7.20395 42.1084 7.43145 42.5318H9.88288C9.56161 41.4529 8.84542 40.5347 7.87716 39.9604C6.84715 39.3413 5.64392 39.0736 4.44859 39.1975C3.26378 39.3105 2.15206 39.821 1.29431 40.6461C0.893666 41.0221 0.574344 41.4762 0.356056 41.9803C0.137767 42.4845 0.0251465 43.0281 0.0251465 43.5775C0.0251465 44.1269 0.137767 44.6705 0.356056 45.1747C0.574344 45.6789 0.893666 46.133 1.29431 46.509C2.13727 47.3473 3.24079 47.8734 4.42288 48.0004C5.61795 48.12 6.81982 47.8525 7.85145 47.2375C8.81801 46.6613 9.53362 45.7439 9.85716 44.6661L7.43145 44.6404ZM31.62 45.7375V39.429H29.3229V47.8375H35.5457V45.7375H31.62ZM39.8143 44.769L40.6714 42.549L41.5286 44.769H39.8143ZM42.6343 47.7947H44.9572L41.8286 39.429H39.5314L36.4029 47.8204H38.7086L39.0686 46.7232H42.2314L42.6343 47.7947ZM24.2229 45.7375V39.429H21.9257V47.8375H28.1314V45.7375H24.2229Z" fill="#FF0000" />
		<path fill-rule="evenodd" clip-rule="evenodd" d="M27.2657 34.1058C22.704 34.0046 18.3533 32.165 15.1028 28.9629C11.9197 25.8471 10.1012 21.5968 10.0457 17.1429C10.0329 16.6103 10.0587 16.0775 10.1228 15.5486C10.8492 13.7733 11.9281 12.1637 13.2942 10.8172C14.6428 9.48268 16.2421 8.42815 17.9999 7.71436C19.7425 7.02232 21.6022 6.67307 23.4771 6.68579H23.9399C22.1796 7.2677 20.5899 8.27454 19.3114 9.61721C18.0496 10.9435 17.1392 12.564 16.6628 14.3315V14.4772C15.5628 18.4447 16.042 22.684 17.9999 26.3058C20.0077 29.9684 23.3128 32.7477 27.2657 34.0972V34.1058ZM43.0457 8.82007C44.7854 11.9081 45.4995 15.4687 45.0851 18.9887C44.6707 22.5088 43.1492 25.8062 40.7399 28.4058C39.1266 30.1717 37.1694 31.5893 34.9885 32.5715C32.1351 32.9654 29.2287 32.5217 26.6228 31.2944C24.042 30.085 21.8832 28.1293 20.4257 25.6801C20.3485 25.5429 20.2714 25.4144 20.2028 25.2772C22.2671 27.049 24.8967 28.0248 27.6171 28.0286C28.645 28.0254 29.6681 27.887 30.6599 27.6172H30.8571C34.9105 26.5838 38.43 24.0702 40.7228 20.5715C42.9995 17.107 43.833 12.8902 43.0457 8.82007ZM27.6171 7.01174e-05C31.2468 -0.0101047 34.7932 1.08731 37.7828 3.14578C39.5616 5.31569 40.6273 7.98173 40.8344 10.7799C41.0415 13.5781 40.3799 16.3719 38.9399 18.7801L38.6914 19.1658C38.8356 18.4607 38.9074 17.7426 38.9057 17.0229C38.9053 15.5823 38.6138 14.1566 38.0485 12.8315C37.4712 11.4972 36.6385 10.2888 35.5971 9.27436L35.3999 9.07721C32.3586 6.17042 28.358 4.47818 24.154 4.32025C19.9499 4.16233 15.8336 5.54964 12.5828 8.22007C14.1653 5.70247 16.3707 3.63583 18.9857 2.22007C21.6312 0.768228 24.5993 0.00482832 27.6171 7.01174e-05Z" fill="#96DCFF" />
	</g>
	<defs>
		<clipPath id="clip0_4208_51484">
			<rect width="54" height="48" fill="white" />
		</clipPath>
	</defs>
</svg>